<?xml version="1.0" standalone="no"?>
<!DOCTYPE svg PUBLIC "-//W3C//DTD SVG 1.1//EN" "http://www.w3.org/Graphics/SVG/1.1/DTD/svg11.dtd" >
<!--
2013-9-30: Created.
-->
<svg>
<metadata>
Created by iconfont
</metadata>
<defs>

<font id="cmui" horiz-adv-x="1024" >
  <font-face
    font-family="cmui"
    font-weight="500"
    font-stretch="normal"
    units-per-em="1024"
    ascent="896"
    descent="-128"
  />
    <missing-glyph />
    
    <glyph glyph-name="x" unicode="x" horiz-adv-x="1001"
d="M281 543q-27 -1 -53 -1h-83q-18 0 -36.5 -6t-32.5 -18.5t-23 -32t-9 -45.5v-76h912v41q0 16 -0.5 30t-0.5 18q0 13 -5 29t-17 29.5t-31.5 22.5t-49.5 9h-133v-97h-438v97zM955 310v-52q0 -23 0.5 -52t0.5 -58t-10.5 -47.5t-26 -30t-33 -16t-31.5 -4.5q-14 -1 -29.5 -0.5
t-29.5 0.5h-32l-45 128h-439l-44 -128h-29h-34q-20 0 -45 1q-25 0 -41 9.5t-25.5 23t-13.5 29.5t-4 30v167h911zM163 247q-12 0 -21 -8.5t-9 -21.5t9 -21.5t21 -8.5q13 0 22 8.5t9 21.5t-9 21.5t-22 8.5zM316 123q-8 -26 -14 -48q-5 -19 -10.5 -37t-7.5 -25t-3 -15t1 -14.5
t9.5 -10.5t21.5 -4h37h67h81h80h64h36q23 0 34 12t2 38q-5 13 -9.5 30.5t-9.5 34.5q-5 19 -11 39h-368zM336 498v228q0 11 2.5 23t10 21.5t20.5 15.5t34 6h188q31 0 51.5 -14.5t20.5 -52.5v-227h-327z" />
    

    
    <glyph glyph-name="change" unicode="&#58880;" d="M798.72-121.744c0-22.592-18.336-40.912-40.976-40.912l-655.36 0c-22.608 0-40.96 18.32-40.96 40.912v347.584c0 22.592 18.336 40.912 40.96 40.912l348.176-0v61.328l-389.12 0c-33.952 0-61.44-27.44-61.44-61.328v-429.408c0-33.904 27.488-61.344 61.44-61.344h737.28c33.936 0 61.44 27.44 61.44 61.344v81.776h-61.44v-40.864zM241.712 500l-58.16 26.496c49.088 89.84 130.72 179.776 205.552 210.56l-0.032 0.144-0.016 0.032c12.576 4.432 21.632 16.304 21.632 30.384 0 17.904-14.48 32.384-32.352 32.384-3.392 0-6.608-0.672-9.68-1.648l-0.016 0.032c-0.064-0.032-0.144-0.064-0.208-0.096-3.36-1.088-6.48-2.656-9.264-4.704-94.72-48.256-184.176-136.352-235.488-239.808l-68.256 31.104 25.12-191.264 161.168 106.384zM798.72 328.080h-245.744v-61.328h204.784c22.624 0 41.008-18.32 41.008-40.912v-204.464h61.472v245.376c-0.080 33.888-27.584 61.328-61.52 61.328zM962.56 798.384h-430.096c-33.936 0-61.44-27.456-61.44-61.344v-736.112c0-33.904 27.52-61.344 61.44-61.344h430.096c33.936 0 61.44 27.44 61.44 61.344v736.112c0 33.92-27.504 61.344-61.44 61.344zM962.592 41.808v0c-0.032-22.592-18.368-40.88-41.008-40.88h-348.144c-22.624 0-40.976 18.288-40.976 40.88v654.336c0 22.592 18.336 40.896 40.976 40.896h348.16c22.624 0 41.008-18.32 41.008-40.896l-0.016-654.336z"  horiz-adv-x="1024" />

    
    <glyph glyph-name="close" unicode="&#58893;" d="M527.470992 674.174981c-195.261158 0-353.551781-158.283979-353.551781-353.536942S332.209835-32.898903 527.470992-32.898903s353.551781 158.283979 353.551781 353.536942S722.73215 674.174981 527.470992 674.174981zM685.136349 195.470295c8.976819-8.969279 8.976819-23.52581 0-32.495088-4.488409-4.488221-10.36448-6.732331-16.247714-6.732331-5.883234 0-11.759305 2.24411-16.248738 6.732331L527.466899 288.141928 402.294924 162.975207c-4.488409-4.488221-10.36448-6.732331-16.247714-6.732331-5.883234 0-11.759305 2.24411-16.247714 6.732331-8.976819 8.969279-8.976819 23.52581 0 32.495088l125.171975 125.166721L369.798472 445.80476c-8.976819 8.969279-8.976819 23.52581 0 32.495088 8.976819 8.976442 23.519634 8.976442 32.496452 0l125.172998-125.167744L652.639897 478.299849c8.976819 8.976442 23.519634 8.976442 32.496452 0 8.976819-8.969279 8.976819-23.52581 0-32.495088L559.964375 320.637016 685.136349 195.470295z"  horiz-adv-x="1024" />

    
    <glyph glyph-name="close1" unicode="&#58969;" d="M579.888 300l190.064 190.064C778.624 498.736 784 510.752 784 524c0 26.512-21.488 48-48 48-13.248 0-25.248-5.376-33.936-14.064L512 367.888 321.936 557.936C313.248 566.624 301.248 572 288 572c-26.512 0-48-21.488-48-48 0-13.248 5.376-25.248 14.064-33.936L444.112 300 254.064 109.936C245.376 101.248 240 89.248 240 76c0-26.512 21.488-48 48-48 13.248 0 25.248 5.376 33.936 14.064L512 232.112l190.064-190.064C710.752 33.376 722.752 28 736 28c26.512 0 48 21.488 48 48 0 13.248-5.376 25.248-14.064 33.936L579.888 300z"  horiz-adv-x="1024" />

    
    <glyph glyph-name="refresh" unicode="&#58895;" d="M893.901 468.386c0.202 2.532-0.137 4.995-1.177 7.227-1.314 2.824-3.584 4.88-6.401 6.332-1.562 1.373-3.269 2.55-5.164 3.27-5.161 1.982-10.309 0.782-14.344-2.588-2.196-0.68-4.399-1.493-6.59-2.641l-31.039-16.188c-61.199 116.657-179.488 194.511-315.896 194.511-145.002 0-269.476-88.036-326.722-217.1-0.163-0.347-0.366-0.65-0.512-1.006-0.703-1.597-1.676-3.021-2.359-4.63l1.378-0.137c-0.369-1.758-1.083-3.393-1.083-5.258 0-14.753 12.184-26.712 27.213-26.712 15.003 0 27.157 11.929 27.192 26.649l0.092-0.010c52.64 105.262 151.595 174.452 273.344 174.452 118.694 0 219.481-60.135 273.341-161.037l-38.426-22.716c-2.751-1.439-5.171-3.184-7.362-5.054-5.643-0.96-10.289-4.733-12.105-10.795-3.055-10.171 2.92-22.78 13.342-28.149l111.187-50.047c1.464-1.223 3.026-2.275 4.766-2.942 4.379-1.678 8.745-1.057 12.434 1.202 3.941 1.719 7.069 4.995 8.486 9.695 0.558 1.873 0.718 3.831 0.696 5.805l15.936 116.343c0.746 3.895 0.568 7.82-0.227 11.523zM838.886 173.044l-1.317 0.132c0.392 1.806 1.113 3.495 1.113 5.417 0 14.756-12.179 26.718-27.208 26.718-15.022 0-27.208-11.961-27.208-26.718 0-0.033 0.020-0.063 0.020-0.097l-0.196 0.020c-52.639-105.261-151.59-174.451-273.343-174.451-118.689 0-219.483 60.129-273.344 161.032l38.434 22.716c2.746 1.439 5.164 3.184 7.354 5.058 5.652 0.963 10.289 4.728 12.107 10.8 3.052 10.158-2.922 22.775-13.337 28.144l-111.195 50.052c-1.457 1.223-3.026 2.275-4.766 2.942-4.374 1.673-8.739 1.055-12.429-1.208-3.943-1.724-7.071-5.003-8.485-9.695-0.556-1.873-0.72-3.831-0.701-5.8l-15.925-116.353c-0.751-3.884-0.578-7.82 0.224-11.518-0.202-2.532 0.132-4.995 1.172-7.229 1.312-2.82 3.594-4.88 6.399-6.325 1.569-1.373 3.269-2.555 5.164-3.286 5.171-1.974 10.311-0.772 14.349 2.605 2.191 0.667 4.401 1.49 6.59 2.636l31.034 16.185c61.199-116.667 179.499-194.506 315.904-194.506 145.021 0 269.517 88.060 326.75 217.149 0.186 0.397 0.418 0.746 0.586 1.154 0.667 1.529 1.599 2.886 2.251 4.425z"  horiz-adv-x="1024" />

    
    <glyph glyph-name="close2" unicode="&#58891;" d="M708.493 460.727l-23.763 23.731-172.727-172.727-172.727 172.727-23.763-23.731 172.762-172.727-172.762-172.727 23.763-23.763 172.727 172.727 172.727-172.727 23.763 23.763-172.762 172.727z"  horiz-adv-x="1024" />

    
    <glyph glyph-name="check" unicode="&#58927;" d="M790.065131 537.623596 378.534788 143.04097 234.365414 285.565737c-15.01996 14.853172-39.354182 14.853172-54.372848 0-15.021253-14.849293-15.021253-38.908121 0-53.762586l170.929131-169.007838c7.510626-7.426586 17.349818-11.141172 27.187717-11.141172 9.637495 0 19.299556 3.564606 26.759758 10.718384l438.718061 420.644202c15.244929 14.628202 15.622465 38.688323 0.85204 53.763879C829.592566 551.88202 805.286788 552.225939 790.065131 537.623596z"  horiz-adv-x="1024" />

    
    <glyph glyph-name="download" unicode="&#58900;" d="M1022.955204 373.429247c0-100.19191-81.516572-181.698249-181.718715-181.698249l-185.637977 0c-11.2973 0-20.466124 9.168824-20.466124 20.466124 0 11.307533 9.168824 20.466124 20.466124 20.466124l185.637977 0c77.628008 0 140.786467 63.148226 140.786467 140.766001 0 77.423347-62.841234 140.448776-140.203182 140.766001-0.419556-0.030699-0.818645-0.051165-1.217734-0.061398-5.945409-0.143263-11.686157 2.292206-15.687284 6.702656-4.001127 4.400217-5.894244 10.335393-5.167696 16.250102 1.330298 10.806113 1.944282 19.760043 1.944282 28.192086 0 60.763922-23.658839 117.884874-66.617234 160.833035-42.968627 42.968627-100.089579 66.617234-160.843268 66.617234-47.368844 0-92.742241-14.449084-131.208321-41.781592-37.616736-26.738991-65.952084-63.700811-81.925894-106.884332-2.425236-6.538927-8.012488-11.399631-14.827707-12.893658-6.815219-1.483794-13.927197 0.603751-18.859533 5.54632-19.289322 19.330254-44.943608 29.972639-72.245418 29.972639-56.322773 0-102.146425-45.813419-102.146425-102.125959 0-0.317225 0.040932-0.982374 0.092098-1.627057 0.061398-0.920976 0.122797-1.831718 0.153496-2.762927 0.337691-9.465582-5.863545-17.928325-15.001669-20.455891-32.356942-8.933463-61.541635-28.550243-82.181721-55.217602-21.305235-27.516704-32.571836-60.508096-32.571836-95.41307 0-86.244246 70.188572-156.422585 156.443052-156.422585l169.981393 0c11.2973 0 20.466124-9.15859 20.466124-20.466124 0-11.2973-9.168824-20.466124-20.466124-20.466124l-169.981393 0c-108.828614 0-197.3753 88.536452-197.3753 197.354833 0 44.053332 14.223956 85.712127 41.126676 120.473839 22.809495 29.460985 53.897537 52.086285 88.710414 64.816215 5.065366 74.322729 67.149353 133.2447 142.751215 133.2447 28.386514 0 55.504128-8.217149 78.651314-23.52581 19.657712 39.868009 48.842405 74.169233 85.497233 100.212376 45.434795 32.295544 99.004875 49.354058 154.918325 49.354058 71.692832 0 139.087778-27.915793 189.782368-78.600149 50.694589-50.694589 78.610382-118.089535 78.610382-189.782368 0-3.704368-0.102331-7.470135-0.296759-11.368932C952.633602 543.431106 1022.955204 466.488713 1022.955204 373.429247zM629.258611 75.288986l-102.023628-102.013395c-3.990894-4.001127-9.230222-5.996574-14.46955-5.996574s-10.478655 1.995447-14.46955 5.996574l-102.023628 102.013395c-7.992021 7.992021-7.992021 20.947078 0 28.939099s20.947078 8.002254 28.939099 0l67.087954-67.077721 0 358.699522c0 11.2973 9.15859 20.466124 20.466124 20.466124 11.307533 0 20.466124-9.168824 20.466124-20.466124l0-358.699522 67.087954 67.077721c7.992021 8.002254 20.947078 7.992021 28.939099 0S637.250632 83.281007 629.258611 75.288986z"  horiz-adv-x="1024" />

    
    <glyph glyph-name="question" unicode="&#58942;" d="M548.798087 202.74689l0-63.168692c0-4.400217-2.936889-7.347339-7.337105-7.347339l-55.821353 0c-4.441149 0-7.357572 2.947122-7.357572 7.347339l0 63.168692c0 4.400217 2.916423 7.347339 7.357572 7.347339l55.821353 0C545.861198 210.094228 548.798087 207.147106 548.798087 202.74689zM650.883113 514.916678c0-35.263132-12.463869-60.978816-37.442774-95.494934l-49.221028-67.568908c-14.674211-19.831674-19.094894-30.105668-19.094894-55.094806l0-23.49511c0-4.400217-2.926656-7.347339-7.347339-7.347339l-48.474015 0c-4.420683 0-7.347339 2.947122-7.347339 7.347339l0 30.105668c0 29.389354 6.600325 44.800345 22.021549 66.115813l49.241494 67.579141c25.684986 35.252899 34.485419 52.137451 34.485419 77.116355 0 41.863457-29.368888 68.305689-71.242578 68.305689-41.116443 0-67.558675-24.958438-76.379575-69.77925-0.747014-4.400217-3.663436-6.610558-8.084119-5.884011l-46.25344 8.094352c-4.420683 0.73678-6.620791 3.663436-5.904477 8.073886 11.041474 70.51603 61.715597 116.789936 138.115638 116.789936C597.261868 639.780501 650.883113 587.632817 650.883113 514.916678zM1023.990786 384.005117c0-91.258447-24.313755-180.859138-70.311369-259.101129-5.730515-9.752108-18.266016-13.006222-28.007891-7.275707-9.752108 5.730515-13.006222 18.266016-7.275707 28.018124 42.303478 71.958892 64.662719 154.386206 64.662719 238.358713 0 63.59848-12.453636 125.293611-37.012985 183.356005-23.720238 56.087413-57.68377 106.464777-100.949156 149.730163-43.265386 43.265386-93.64275 77.239152-149.740396 100.95939-58.062394 24.559349-119.747291 37.002752-183.356005 37.002752s-125.293611-12.443403-183.356005-37.002752c-56.097646-23.720238-106.47501-57.694003-149.740396-100.95939s-77.228919-93.64275-100.949156-149.730163c-24.559349-58.062394-37.012985-119.757524-37.012985-183.356005 0-63.608713 12.453636-125.293611 37.012985-183.356005 23.720238-56.087413 57.68377-106.464777 100.949156-149.740396 43.265386-43.265386 93.64275-77.228919 149.740396-100.949156 58.062394-24.559349 119.747291-37.012985 183.356005-37.012985 117.946272 0 230.79648 43.797505 317.767274 123.308397 8.339946 7.623631 21.284769 7.040347 28.9084-1.299599s7.05058-21.284769-1.289366-28.9084c-94.533027-86.428442-217.196741-134.032646-345.386308-134.032646-69.114101 0-136.171356 13.538341-199.299115 40.246633-60.978816 25.787316-115.725698 62.697971-162.736385 109.708658s-83.921341 101.767801-109.708658 162.736385c-26.708292 63.127759-40.246633 130.185015-40.246633 199.299115s13.538341 136.161123 40.246633 199.299115c25.787316 60.968583 62.697971 115.715465 109.708658 162.736385 47.010687 47.010687 101.757568 83.921341 162.736385 109.708658 63.127759 26.698059 130.185015 40.2364 199.299115 40.2364s136.171356-13.538341 199.299115-40.2364c60.978816-25.787316 115.725698-62.697971 162.736385-109.708658 47.010687-47.02092 83.921341-101.767801 109.708658-162.736385C1010.442212 520.166239 1023.990786 453.119217 1023.990786 384.005117z"  horiz-adv-x="1024" />

    
    <glyph glyph-name="form" unicode="&#58884;" d="M866.461538 812 157.538462 812C92.396308 812 39.384615 758.988308 39.384615 693.846154l0-787.692308c0-65.142154 53.011692-118.153846 118.153846-118.153846l708.923077 0c65.142154 0 118.153846 53.011692 118.153846 118.153846L984.615385 693.846154C984.615385 758.988308 931.603692 812 866.461538 812zM710.144 298.936615c0-21.740308-17.606154-39.384615-39.384615-39.384615L236.032 259.552c-21.740308 0-39.384615 17.644308-39.384615 39.384615s17.644308 39.384615 39.384615 39.384615l434.727385 0C692.539077 338.321231 710.144 320.676923 710.144 298.936615zM510.897231 613.422769c32.627692 0 59.076923-26.450462 59.076923-59.076923 0-32.627692-26.449231-59.076923-59.076923-59.076923-32.626462 0-59.076923 26.449231-59.076923 59.076923C451.820308 586.973538 478.270769 613.422769 510.897231 613.422769zM255.645538 613.422769c32.627692 0 59.076923-26.450462 59.076923-59.076923 0-32.627692-26.449231-59.076923-59.076923-59.076923s-59.076923 26.449231-59.076923 59.076923C196.568615 586.973538 223.017846 613.422769 255.645538 613.422769zM786.313846 24.898462 235.874462 24.898462c-21.740308 0-39.384615 17.604923-39.384615 39.384615 0 21.778462 17.644308 39.384615 39.384615 39.384615L786.313846 103.667692c21.779692 0 39.384615-17.606154 39.384615-39.384615C825.698462 42.503385 808.093538 24.898462 786.313846 24.898462zM767.054769 495.268923c-32.627692 0-59.076923 26.449231-59.076923 59.076923 0 32.626462 26.449231 59.076923 59.076923 59.076923 32.626462 0 59.076923-26.450462 59.076923-59.076923C826.131692 521.718154 799.681231 495.268923 767.054769 495.268923z"  horiz-adv-x="1024" />

    
    <glyph glyph-name="exchange" unicode="&#58976;" d="M508.2 604.5c-9.9 0-17.9-8-17.9-17.9l0-500.1-87.4 85.7c-7.1 6.9-18.4 6.8-25.3-0.2-6.9-7-6.8-18.4 0.2-25.3l148.3-145.4L526.1 586.6C526.1 596.5 518.1 604.5 508.2 604.5zM741-4.5c9.9 0 17.9 8 17.9 17.9l0 504 87.2-87.2c7-7 18.3-7 25.3 0 3.5 3.5 5.2 8.1 5.2 12.7s-1.7 9.2-5.2 12.7L723.1 603.9l0-590.5C723.1 3.5 731.1-4.5 741-4.5z"  horiz-adv-x="1237" />

    
    <glyph glyph-name="top" unicode="&#58885;" d="M186.86134 152.036064 186.86134 414.567315 93.10091 414.567315l0 53.454446 251.107061 0 0-53.454446-93.545536 0 0-262.531252L186.86134 152.036064zM364.469434 308.089235c0 32.18605 4.812609 59.20031 14.440897 81.043804 7.18361 16.09149 16.990976 30.53341 29.4221 43.323715 12.428054 12.788258 26.042119 22.272259 40.844244 28.452006 19.686365 8.332782 42.389436 12.501732 68.111261 12.501732 46.558385 0 83.808778-14.440897 111.75834-43.323715 27.947516-28.883841 41.923832-69.048609 41.923832-120.488165 0-51.013861-13.868869-90.924849-41.599444-119.735012-27.733645-28.811186-64.808028-43.215244-111.219057-43.215244-46.989197 0-84.352153 14.33345-112.083751 43.00035C378.334209 218.315606 364.469434 257.793736 364.469434 308.089235zM430.209694 310.245342c0-35.780925 8.260128-62.905702 24.787546-81.368192 16.522302-18.46556 37.504172-27.696806 62.938448-27.696806 25.433252 0 46.304605 9.160637 62.61406 27.480888 16.309454 18.321274 24.465205 45.803185 24.465205 82.44471 0 36.211736-7.942903 63.224973-23.817452 81.043804-15.879666 17.816784-36.96489 26.727735-63.260789 26.727735-26.295899 0-47.493687-9.018398-63.584154-27.051099C438.25595 373.792657 430.209694 346.597271 430.209694 310.245342zM720.762139 152.036064 720.762139 468.021761l102.382808 0c38.797631 0 64.086597-1.583055 75.870991-4.742001 18.105357-4.742001 33.263591-15.054881 45.478797-30.931476 12.212136-15.879666 18.321274-36.391838 18.321274-61.537542 0-19.398816-3.523243-35.709293-10.56052-48.927339-7.043417-13.222139-15.987113-23.601534-26.836205-31.146371-10.851139-7.543813-21.877263-12.538571-33.085536-14.981203-15.233959-3.016707-37.288255-4.526083-66.171072-4.526083l-41.599444 0 0-119.194706L720.762139 152.03504zM784.563234 414.567315l0-89.665159 34.916231 0c25.14468 0 41.957601 1.64957 50.437739 4.956895 8.476045 3.304256 15.121396 8.477069 19.938098 15.519462 4.812609 7.039323 7.219425 15.229866 7.219425 24.572652 0 11.493775-3.377934 20.977777-10.128685 28.450982-6.757914 7.470135-15.303544 12.141528-25.650193 14.010085-7.616468 1.434675-22.920012 2.155083-45.910633 2.155083L784.563234 414.567315z"  horiz-adv-x="1024" />

    
    <glyph glyph-name="download1" unicode="&#59007;" d="M504.032 193.68l0-5.648 31.84 0 0 5.424c1.28 0.848 2.528 1.456 3.824 2.56 13.104 11.264 140.496 116.496 140.496 116.496l-21.664 17.952-122.656-100.672 0.016 422.32-31.856 0 0-420.304-121.984 100.112-22.016-18.592 140.992-117.312c0 0.016 1.12-1.024 3.008-2.336zM775.84 262.848l0-101.312c0-34.56-23.184-69.568-56.416-69.568l-411.312 0.256c-24.544 0-44.064 22.544-44.064 47.056l0 122.976-31.888 0 0-131.664c0-36.624 33.936-70.496 67.44-70.496l434.448 0c52.384 0 73.952 25.568 73.952 79.904l0 122.848-32.16 0z"  horiz-adv-x="1024" />

    
    <glyph glyph-name="angle" unicode="&#58964;" d="M333.157 229.376l322.139 320.77-28.524 28.578-391.004-389.284h552.199v39.936zM465.686 369.023l-29.626-27.638c29.137-32.686 48.084-74.121 52.422-118.153h41.905c-4.545 55.296-28.093 105.872-64.7 145.791z"  horiz-adv-x="1024" />

    
    <glyph glyph-name="dingwei" unicode="&#58886;" d="M927.454 309.761c-0.138 0-0.271-0.009-0.407-0.012h-53.708c-9.926 183.854-156.155 331.467-339.421 343.575v49.918c0 12.058-9.775 21.833-21.834 21.833-12.057 0-21.833-9.775-21.833-21.833v-49.614c-185.812-9.692-334.767-158.592-344.544-344.381h-48.971c-12.058 0-21.833-9.775-21.833-21.833 0-12.057 9.774-21.833 21.833-21.833h49.253c12.043-183.571 160.040-330.024 344.268-339.63v-53.18h0.016c0-0.069-0.006-0.139-0.006-0.208 0-12.058 9.775-21.833 21.833-21.833 12.059 0 21.833 9.775 21.833 21.833 0 0.137-0.008 0.271-0.011 0.407v53.284c182.018 12.028 327.503 157.723 339.198 339.83l54.123 0.017c0.069 0 0.14-0.006 0.209-0.006 12.057 0 21.833 9.773 21.833 21.831 0.001 12.060-9.774 21.834-21.831 21.834zM490.251 580.504v-51.066c-117.341-9.313-210.952-102.873-220.348-220.191h-51.076c9.593 145.467 125.932 261.75 271.424 271.256zM490.256-0.923c-143.908 9.401-259.3 123.263-271.085 266.506h51.153c11.508-115.088 104.177-206.255 219.932-215.44v-51.066zM512.089 178.49c-12.058 0-21.833-9.775-21.833-21.833v-64.084c-92.394 8.924-166.225 81.29-177.398 173.007l67.762 0.017c0.070 0 0.138-0.006 0.208-0.006 12.058 0 21.833 9.773 21.833 21.833 0 12.057-9.774 21.832-21.833 21.832-0.137 0-0.271-0.008-0.407-0.011h-68.085c9.158 93.959 83.934 168.681 177.916 177.76v-67.647h0.015c0-0.070-0.005-0.138-0.005-0.208 0-12.058 9.775-21.833 21.833-21.833 12.059 0 21.833 9.775 21.833 21.833 0 0.137-0.008 0.271-0.011 0.407v66.892c91.415-11.217 163.573-84.679 172.778-176.699h-63.335c-12.058 0-21.833-9.774-21.833-21.833 0-12.056 9.774-21.833 21.833-21.833h62.913c-10.763-90.259-82.186-161.886-172.352-172.953v63.526c0.002 12.058-9.773 21.833-21.832 21.833zM533.923-0.55v51.146c113.536 11.439 203.75 101.863 214.871 215.491h51.153c-11.417-141.78-124.326-254.892-266.024-266.637zM749.128 309.75c-9.485 115.38-100.428 207.677-215.211 219.237v51.144c142.945-11.845 256.585-126.851 266.299-270.382l-51.089 0.001z"  horiz-adv-x="1024" />

    
    <glyph glyph-name="icon" unicode="&#58931;" d="M510.98795 749.203792c105.343233 0 200.506617-44.216038 269.612531-115.532293 129.028679-132.886543 147.716296-345.389378 45.451168-499.518734-41.884946-63.256696-100.837616-112.852254-169.942507-142.144394L534.668279-136.005188c-12.798491-12.932544-34.081213-13.428847-47.120181-0.474814l-0.460488 0.474814-0.246617 0.50142L365.893364-7.99163c-69.13252 29.29214-128.299061 78.887698-169.482019 142.144394C93.659123 288.282121 112.373347 500.784956 241.371326 633.671499 310.503846 704.987754 405.666206 749.203792 510.98795 749.203792L510.98795 749.203792zM510.98795 554.533091 510.98795 554.533091c52.794413 0 100.617605-22.231327 135.155213-57.900711 34.809807-35.642778 56.361659-85.24243 56.361659-139.715065 0-54.231135-21.550829-103.804181-56.361659-139.473565-34.537608-35.893488-82.359776-58.128909-135.155213-58.128909-52.771901 0-100.590999 22.23542-135.400806 58.128909-34.541701 35.669384-56.092529 85.24243-56.092529 139.473565 0 54.472636 21.550829 104.072287 56.092529 139.715065C410.396951 532.301763 458.215026 554.533091 510.98795 554.533091L510.98795 554.533091zM617.977683 467.317727 617.977683 467.317727c-27.462468 28.590152-65.078181 46.176692-106.989733 46.176692-41.884946 0-79.527265-17.58654-106.994849-46.176692-27.220968-28.088732-44.25697-67.159586-44.25697-110.400413 0-42.748616 17.036002-82.069157 44.25697-110.408599 27.466562-28.088732 65.109903-45.671179 106.994849-45.671179 41.911552 0 79.527265 17.581424 106.989733 45.671179 27.220968 28.339442 44.261063 67.659983 44.261063 110.408599C662.238746 400.158141 645.198651 439.228995 617.977683 467.317727L617.977683 467.317727zM733.264383 585.074687 733.264383 585.074687c-57.041134 58.858526-135.405923 95.248318-222.276433 95.248318-86.875626 0-165.700903-36.389792-222.491327-95.248318-106.533338-109.674888-121.92284-285.063431-37.185924-412.07415 35.051307-53.752228 85.229127-95.748714 144.395668-119.68487 4.752234-1.476631 8.989745-4.403287 12.55699-8.076956l102.725616-108.202351 102.506629 108.202351c3.298116 3.177366 7.562233 5.875824 11.585873 7.826246 59.413158 23.690562 110.556978 65.709561 145.827273 119.93558C855.402117 300.010233 839.547011 475.398776 733.264383 585.074687L733.264383 585.074687z"  horiz-adv-x="1024" />

    
    <glyph glyph-name="lg-up" unicode="&#58980;" d="M158.531 222.208c-7.761-7.761-7.761-20.938 0-28.699 7.788-8.515 20.965-8.515 28.726 0l331.668 330.59 330.887-330.59c7.761-8.515 20.965-8.515 28.726 0 8.542 7.761 8.542 20.938 0 28.699l-345.627 345.331c-7.761 7.761-20.965 7.761-28.726 0l-345.654-345.331z"  horiz-adv-x="1024" />

    
    <glyph glyph-name="top2" unicode="&#58907;" d="M753.130849 385.895299 524.307304 614.717821c-3.422959 3.422959-7.807826 5.284353-12.284791 5.616928-0.714268 0.080841-1.436722 0.132006-2.172479 0.132006-5.304819 0-10.104125-2.157129-13.573133-5.640464-0.011256-0.011256-0.024559-0.020466-0.035816-0.031722L270.481318 389.031732c-7.481392-7.478322-7.481392-19.609617 0-27.087938 7.481392-7.480368 19.609617-7.480368 27.091008 0l193.120392 193.117322 0-375.192148c0-10.577916 8.577353-19.155269 19.156292-19.155269s19.156292 8.577353 19.156292 19.155269L529.005302 555.098979 725.671451 358.433854c7.583722-7.584746 19.8767-7.584746 27.458375 0C760.713548 366.014506 760.713548 378.310553 753.130849 385.895299zM509.84901 122.402139c-10.578939 0-19.156292-8.577353-19.156292-19.159362 0-10.577916 8.577353-19.155269 19.156292-19.155269s19.156292 8.577353 19.156292 19.155269C529.005302 113.82581 520.42795 122.402139 509.84901 122.402139zM509.84901 20.233202c-10.578939 0-19.156292-8.577353-19.156292-19.155269 0-10.578939 8.577353-19.155269 19.156292-19.155269s19.156292 8.575306 19.156292 19.155269C529.005302 11.655849 520.42795 20.233202 509.84901 20.233202z"  horiz-adv-x="1024" />

    
    <glyph glyph-name="top3" unicode="&#58918;" d="M347.048732 896l30.167601 0c-1.294053-14.477213 0.727905-16.256536 7.521681-21.675381 77.724034-61.710133 134.096201-146.955849 161.271306-252.744649-121.317431 0.647026-245.222968-1.294053-364.922834 0.970539 26.042809 94.061449 72.628702 173.483927 137.654846 231.958929 7.926072 7.117289 26.285443 18.44025 28.307401 25.476661C348.423663 884.838796 345.835558 894.625069 347.048732 896L347.048732 896zM174.454466 593.272569l379.076534 0c8.734855-43.512519 17.065319-91.068952 15.12424-138.625385C566.714162 407.576021 557.494037 361.79891 548.84006 321.683279c-18.278493-84.841324-40.520022-165.719611-63.165943-242.392228L244.252429 79.291051c-25.719295 73.68012-46.424137 156.014217-65.107022 240.451149-17.631467 79.665113-30.24848 185.1304-5.66148 270.61875C173.403049 591.81676 173.403049 593.110813 174.454466 593.272569L174.454466 593.272569zM290.433931 478.263644c-16.660927-52.813522 19.976937-102.230156 73.518363-101.825764 21.998894 0.161757 45.291841 11.80823 57.504463 25.476661 44.806571 49.740147 6.793776 136.846063-65.107022 129.162625C320.278019 527.195008 298.845273 504.791723 290.433931 478.263644L290.433931 478.263644zM0 295.316958 0 324.514019C8.168707 403.693863 59.122028 445.265303 124.471685 464.109944c10.514177-120.266014 35.101177-226.378327 68.827423-323.432272-25.638417-36.071716-54.188453-73.922755-51.842982-134.824106C61.710133 69.666535 8.97749 160.57373 0 295.316958L0 295.316958zM604.484322 464.109944c47.556433-14.558092 83.628149-38.174552 104.656504-76.349104 22.160651-40.277387 21.513625-98.428876 11.32296-154.639286-9.058368-49.821025-27.013348-92.767396-49.982782-131.103704-22.888555-38.174552-50.306295-73.033094-83.951663-95.274623 1.698444 44.88745-14.558092 79.82687-34.858542 110.317984-5.418845 8.087829-16.418292 18.116736-16.98444 23.535582-0.808783 7.845194 8.815733 25.719295 12.2935 36.799621 26.851592 86.863281 47.556433 181.329121 56.614801 284.772451C603.190269 464.029066 604.160809 465.646631 604.484322 464.109944L604.484322 464.109944zM277.25077 50.093989l172.594266 0c-10.514177-20.947477-23.61646-39.22597-33.968881-60.335203-10.271543 6.712898-16.903562 17.065319-26.366322 24.506121-8.653977-27.741253-17.712345-55.23987-26.4472-82.981123-11.403839 26.93247-21.27099 55.401627-32.027802 82.981123-7.845194-13.506674-14.315457-28.388279-21.675381-42.461101C297.55122-3.123924 287.603191 23.646789 277.25077 50.093989L277.25077 50.093989zM277.25077 50.093989"  horiz-adv-x="1080" />

    
    <glyph glyph-name="top4" unicode="&#58896;" d="M812 153.4l-300 172.8-300-172.8 300 604L812 153.4zM264.5 209.2l247.5 142.5 247.5-142.5L512 707.5 264.5 209.2zM371.7 138.3l0-126.2-15.9 0 0 126.2-45.9 0L309.9 153l107.4 0 0-14.8L371.7 138.2zM506.6 154.5c26.6 0 43.3-3.9 50-11.7 6.7-7.8 10-27.2 10-58.3 0-33.5-3.2-54.2-9.6-62-6.4-7.8-23.2-11.8-50.4-11.8-27 0-43.8 3.9-50.3 11.7-6.5 7.8-9.8 27.9-9.8 60.3l0 9.9 0.2 13.3c0 18.7 4.2 31.5 12.6 38.4C467.8 151 483.5 154.5 506.6 154.5zM506.5 141c-22.3 0-35.3-2.5-39.1-7.4-3.8-5-5.7-22-5.7-51 0-29.1 1.9-46.1 5.7-51.1 3.8-5 16.8-7.4 39.1-7.4 22.4 0 35.4 2.5 39.2 7.4 3.8 5 5.7 22 5.7 51.1l0 9.2-0.1 13.3c0 15.6-2.6 25.4-7.8 29.6S525.9 141 506.5 141zM608.4 12.1 608.4 153l59.2 0 5.4 0c15.9 0 26.7-3.1 32.5-9.2 5.8-6.1 8.7-17.6 8.7-34.4 0-16.1-3-27.1-9-32.9-6-5.9-17.3-8.8-33.9-8.8l-6.2-0.1-40.7 0 0-55.5L608.4 12.1zM624.3 81.1l37.7 0c15.8 0 25.9 1.6 30.3 4.9 4.4 3.2 6.7 10.7 6.7 22.3 0 13.6-1.5 22.2-4.5 25.9-3 3.6-10.1 5.4-21.3 5.4l-6.1 0.1-42.7 0L624.4 81.1z"  horiz-adv-x="1024" />

    
    <glyph glyph-name="back" unicode="&#59041;" d="M957.342346 186.071092c0.017396 1.601474 0.035816 3.201925 0.01228 4.840238-0.013303 0.905626-0.025583 1.849114-0.038886 2.809999-0.115634 32.899294-0.36839 111.301945-0.459464 190.277648 0.091074 78.977749 0.343831 157.382447 0.459464 190.279694 0.013303 0.960885 0.025583 1.904373 0.038886 2.809999 0.023536 1.639337 0.005117 3.238764-0.01228 4.839215 0.019443 5.205559 0.030699 8.17724 0.031722 8.469905 0.007163 1.865487-0.25685 3.664459-0.717338 5.383614-2.481518 26.485211-11.434423 46.927799-26.733874 60.907185-20.325931 18.570961-44.171012 18.49012-50.572816 18.088984L297.098024 674.777573c-4.870938 0-9.583263-1.737574-13.287631-4.900613C116.483456 527.036717 73.792145 409.40767 68.087213 391.680936c-0.777713-1.953492-1.252527-4.02978-1.397836-6.16542-0.004093-0.054235-0.007163-0.10847-0.011256-0.163729-0.026606-0.445138-0.041956-0.890276-0.038886-1.339508-0.004093-0.471744 0.011256-0.939395 0.040932-1.407046 0.002047-0.029676 0.00307-0.060375 0.00614-0.090051 0.145309-2.200108 0.636496-4.338818 1.449002-6.344498 5.90857-18.266016 48.846498-135.632073 215.675084-278.045597 3.705392-3.163039 8.416693-4.900613 13.287631-4.900613l582.252017 0c0.843204-0.053212 1.987261-0.101307 3.38919-0.101307 9.231245 0 29.534663 2.064009 47.184649 18.188244 15.299451 13.978363 24.252357 34.419927 26.733874 60.905138 0.460488 1.719154 0.724501 3.518127 0.717338 5.384637C957.373045 177.893852 957.361789 180.86451 957.342346 186.071092zM882.096595 134.065647c-0.814552 0.107447-1.081635 0.091074-1.982144 0.090051L304.684816 134.155698c-84.061534 72.759117-133.167952 137.698129-159.707398 179.732477-21.738094 34.43016-32.201399 59.373249-36.202527 70.112847 4.001127 10.741645 14.464433 35.68371 36.202527 70.112847 26.539446 42.033325 75.645864 106.972337 159.707398 179.732477l575.430658 0c0.715291 0 1.430582 0.037862 2.142803 0.112564 0.109494 0.013303 11.187807 0.615007 20.056801-7.487531 8.890484-8.123005 13.726629-23.260773 14.098089-43.934628-0.008186-2.210341-0.017396-4.845355-0.027629-7.875365-0.48607-36.966936-0.548492-114.100688-0.460488-190.660364-0.088004-76.558653-0.024559-153.692405 0.460488-190.658318 0.011256-3.021823 0.020466-5.650697 0.027629-7.857968-0.364297-20.384259-5.071506-35.408441-13.723559-43.6041C894.207423 133.844613 883.65202 133.987876 882.096595 134.065647zM605.328084 384l93.776803 93.776803c7.992021 7.993045 7.992021 20.951171-0.001023 28.943193-7.993045 7.993045-20.951171 7.993045-28.943193 0l-93.77578-93.776803-93.776803 93.77578c-7.993045 7.993045-20.951171 7.993045-28.943193 0s-7.993045-20.951171 0-28.943193l93.776803-93.776803-93.77578-93.776803c-7.993045-7.993045-7.993045-20.951171 0-28.943193 3.996011-3.996011 9.233292-5.993504 14.471596-5.993504s10.475586 1.998517 14.471596 5.994528l93.77578 93.776803 93.777827-93.776803c3.996011-3.996011 9.233292-5.993504 14.471596-5.993504s10.475586 1.998517 14.47262 5.994528c7.993045 7.993045 7.992021 20.951171 0 28.943193L605.328084 384z"  horiz-adv-x="1024" />

    
    <glyph glyph-name="dingwei1" unicode="&#59531;" d="M511.999488 501.91148c-65.117067 0-117.912503-52.780087-117.912503-117.912503 0-65.13037 52.795437-117.91148 117.912503-117.91148s117.912503 52.780087 117.912503 117.91148C629.910968 449.131393 577.116555 501.91148 511.999488 501.91148zM511.999488 831.695438c-247.251244 0-447.696462-200.443172-447.696462-447.696462 0-247.251244 200.445218-447.695438 447.696462-447.695438s447.696462 200.444195 447.696462 447.695438C959.69595 631.252267 759.250732 831.695438 511.999488 831.695438zM566.965357 20.799978l-54.965869 109.903086L457.01827 20.793838c-158.397566 23.768333-283.700387 148.679227-308.045865 306.887482l112.608707 56.317657L148.972405 440.31868C173.266717 598.189244 298.082444 722.922083 455.999057 747.070062l56.000432-111.946628 55.983036 111.940488c157.940149-24.165376 282.780435-148.921751 307.055305-306.811758L762.561128 384l112.475677-56.251142C850.71077 169.521161 725.38339 44.584684 566.965357 20.799978z"  horiz-adv-x="1024" />

    
    <glyph glyph-name="radio" unicode="&#58955;" d="M512.001753 896C229.67192 896 0 666.314054 0 384.000584c0-282.313469 229.669582-512.000584 512.001753-512.000584 282.328665 0 511.998247 229.687115 511.998247 512.000584C1023.998831 666.314054 794.329249 896 512.001753 896L512.001753 896zM512.001753-87.031116C252.263309-87.031116 40.954857 124.270323 40.954857 384.000584c0 259.736106 211.307283 471.031701 471.045728 471.031701 259.730262 0 471.04339-211.295594 471.04339-471.031701C983.045143 124.270323 771.732015-87.031116 512.001753-87.031116L512.001753-87.031116zM512.001753 578.217336c-107.265559 0-194.203894-86.967557-194.203894-194.216752s86.938335-194.202725 194.203894-194.202725c107.263221 0 194.200387 86.95353 194.200387 194.202725C706.200971 491.24861 619.263806 578.217336 512.001753 578.217336L512.001753 578.217336z"  horiz-adv-x="1024" />

    
    <glyph glyph-name="lg-down" unicode="&#59019;" d="M495.349 237.353c9.391-8.308 22.864-8.308 31.171 1.011 8.38 8.308 8.38 21.816 0 30.16l-263.35 263.134c-8.344 8.308-22.9 8.308-31.244 0-8.344-9.355-8.344-22.864 0-31.171l263.423-263.134zM497.408 267.513c-8.271-8.308-8.271-22.9 0-31.208 8.308-8.308 22.936-8.308 31.244 0l263.423 262.122c8.308 8.308 8.308 22.864 0 31.171s-21.853 8.308-31.208 0l-263.459-262.086z"  horiz-adv-x="1024" />

    
    <glyph glyph-name="staro" unicode="&#58988;" d="M686.285714 322.285714l174.857143 169.714286-241.142857 35.428571-108 218.285714-108-218.285714-241.142857-35.428571 174.857143-169.714286-41.714286-240.571429 216 113.714286 215.428571-113.714286zM987.428571 526.285714q0-12.571429-14.857143-27.428571l-207.428571-202.285714 49.142857-285.714286q0.571429-4 0.571429-11.428571 0-28.571429-23.428571-28.571429-10.857143 0-22.857143 6.857143l-256.571429 134.857143-256.571429-134.857143q-12.571429-6.857143-22.857143-6.857143-12 0-18 8.285714t-6 20.285714q0 3.428571 1.142857 11.428571l49.142857 285.714286-208 202.285714q-14.285714 15.428571-14.285714 27.428571 0 21.142857 32 26.285714l286.857143 41.714286 128.571429 260q10.857143 23.428571 28 23.428571t28-23.428571l128.571429-260 286.857143-41.714286q32-5.142857 32-26.285714z"  horiz-adv-x="1024" />

    
    <glyph glyph-name="close3" unicode="&#58910;" d="M512.187265 831.978894c-246.51344 0-447.082478-200.552665-447.082478-447.082478s200.569038-447.082478 447.082478-447.082478 447.082478 200.552665 447.082478 447.082478S758.700705 831.978894 512.187265 831.978894zM512.187265 6.595464c-208.595852 0-378.300952 169.704077-378.300952 378.300952s169.704077 378.300952 378.300952 378.300952S890.487194 593.492268 890.487194 384.896416 720.783117 6.595464 512.187265 6.595464zM666.945955 539.655106c-13.429871 13.429871-35.20071 13.429871-48.63058 0L512.187265 433.526997 406.059156 539.655106c-13.429871 13.429871-35.20071 13.429871-48.63058 0s-13.429871-35.20071 0-48.63058L463.555661 384.896416 357.427552 278.768307c-13.429871-13.429871-13.429871-35.20071 0-48.63058s35.20071-13.429871 48.63058 0l106.128109 106.128109 106.128109-106.128109c13.429871-13.429871 35.20071-13.429871 48.63058 0s13.429871 35.20071 0 48.63058L560.817846 384.896416l106.128109 106.128109C680.375825 504.454396 680.375825 526.226259 666.945955 539.655106z"  horiz-adv-x="1024" />

    
    <glyph glyph-name="switch" unicode="&#58921;" d="M714.205816 691.848367 309.967122 691.848367c-169.95274 0-307.72557-137.773853-307.72557-307.726593s137.773853-307.72557 307.72557-307.72557l404.238694 0c169.950693 0 307.72557 137.77283 307.72557 307.72557S884.157533 691.848367 714.205816 691.848367zM714.554764 105.501078c-154.22964 0-279.268448 125.030621-279.268448 279.268448 0 154.236803 125.038808 279.268448 279.268448 279.268448 154.239873 0 279.269471-125.032668 279.269471-279.268448C993.824235 230.530676 868.794637 105.501078 714.554764 105.501078z"  horiz-adv-x="1024" />

    
    <glyph glyph-name="lg-right" unicode="&#58968;" d="M806.136 151.784c-3.557 0-7.133 1.074-10.074 3.265-6.674 4.999-7.569 13.9-2.016 19.904l238.785 257.137-239.997 262.815c-5.508 6.035-4.532 14.933 2.203 19.877 6.739 4.946 16.637 4.055 22.145-1.978l248.227-271.844c4.784-5.242 4.754-12.784-0.077-17.996l-247.126-266.124c-3.086-3.333-7.572-5.056-12.071-5.056v0zM806.136 151.784z"  horiz-adv-x="2017" />

    
    <glyph glyph-name="buttonp" unicode="&#58925;" d="M1142.153846-128 196.923077-128c-108.583385 0-196.923077 88.339692-196.923077 196.923077L0 699.076923c0 108.583385 88.339692 196.923077 196.923077 196.923077l945.230769 0c108.583385 0 196.923077-88.339692 196.923077-196.923077l0-630.153846C1339.076923-39.660308 1250.737231-128 1142.153846-128zM196.923077 817.230769C131.780923 817.230769 78.769231 764.219077 78.769231 699.076923l0-630.153846c0-65.142154 53.011692-118.153846 118.153846-118.153846l945.230769 0c65.142154 0 118.153846 53.011692 118.153846 118.153846L1260.307692 699.076923c0 65.142154-53.011692 118.153846-118.153846 118.153846L196.923077 817.230769zM630.153846 854.173538l78.769231 0 0-940.307692-78.769231 0 0 940.307692Z"  horiz-adv-x="1340" />

    
    <glyph glyph-name="back3" unicode="&#58908;" d="M511.738-84.348c-62.223 0-122.595 12.191-179.438 36.233-54.895 23.218-104.191 56.455-146.522 98.784-42.329 42.33-75.566 91.627-98.784 146.523-24.043 56.843-36.233 117.215-36.233 179.439 0 62.224 12.191 122.596 36.233 179.439 23.218 54.895 56.455 104.192 98.784 146.522 42.33 42.33 91.627 75.565 146.522 98.784 56.843 24.043 117.215 36.233 179.438 36.233 62.225 0 122.597-12.191 179.441-36.233 54.895-23.219 104.191-56.454 146.522-98.784 42.329-42.33 75.565-91.627 98.784-146.522 24.042-56.843 36.232-117.215 36.232-179.439 0-62.224-12.191-122.596-36.232-179.439-23.219-54.896-56.455-104.192-98.784-146.523-42.33-42.329-91.627-75.566-146.522-98.784-56.845-24.042-117.217-36.233-179.441-36.233zM511.738 802.817c-234.998 0-426.185-191.186-426.185-426.186s191.185-426.187 426.185-426.187c234.999 0 426.186 191.186 426.186 426.186s-191.186 426.187-426.186 426.187zM171.251 290.138c1.623 17.034 2.706 30.432 3.248 40.187 0.775 13.319 1.526 31.594 2.26 54.823 0.734 23.23 1.103 39.608 1.103 49.134 0 3.405-0.041 8.208-0.116 14.402 10.298-0.232 18.47-0.349 24.509-0.349 8.438 0 18.273 0.176 29.504 0.525 11.229 0.348 20.87 0.521 28.924 0.521 9.68 0 16.571-0.273 20.677-0.811 5.418-0.698 10.162-1.936 14.229-3.717 4.066-1.784 7.453-3.99 10.166-6.623 3.020-3.097 5.381-6.813 7.085-11.15 1.935-4.956 2.903-10.26 2.903-15.913 0-4.411-0.562-8.635-1.683-12.66-1.124-4.028-2.711-7.607-4.762-10.744-2.052-3.137-4.355-5.751-6.911-7.841-2.555-2.091-5.052-3.719-7.491-4.879-2.441-1.161-5.712-2.324-9.816-3.484 4.103-0.699 7.393-1.49 9.872-2.38 2.477-0.89 5.129-2.325 7.957-4.298 2.825-1.975 5.36-4.512 7.608-7.61 2.245-3.096 3.928-6.562 5.052-10.394 1.122-3.833 1.684-7.879 1.684-12.137 0-5.885-0.968-11.424-2.903-16.608-1.937-5.189-4.647-9.641-8.13-13.358-2.943-3.176-6.778-5.885-11.499-8.13-4.725-2.247-9.565-3.795-14.519-4.648-4.029-0.618-11.365-1.085-22.011-1.392-10.649-0.312-21.936-0.465-33.859-0.465l-30.547 0.116-22.535-0.116zM220.337 321.963h22.323c5.89 0 10.23 0.349 13.022 1.045 3.409 0.852 6.005 1.977 7.786 3.369 1.783 1.395 3.198 3.291 4.246 5.693 1.045 2.398 1.57 5.070 1.57 8.015 0 2.555-0.427 4.797-1.278 6.735-0.852 1.934-2.132 3.56-3.834 4.877-1.706 1.318-3.795 2.267-6.273 2.847-2.479 0.579-6.35 0.872-11.617 0.872h-24.511l-1.434-33.452zM222.998 386.893h16.514c5.426 0 9.285 0.134 11.572 0.405 2.287 0.27 4.517 0.756 6.687 1.454 2.171 0.694 4.051 1.858 5.641 3.482 1.59 1.626 2.713 3.445 3.372 5.461 0.658 2.012 0.989 4.024 0.989 6.038 0 2.865-0.679 5.419-2.032 7.668-1.356 2.243-3.542 3.907-6.563 4.992-3.019 1.087-7.628 1.627-13.821 1.627h-20.907l-1.451-31.127zM318.763 290.138l9.647 16.725 60.080 113.133 6.392 12.66c1.859 3.717 4.454 9.060 7.788 16.029 13.625-0.157 23.574-0.232 29.846-0.232 10.917 0 21.021 0.076 30.313 0.232l16.947-48.434 34.476-93.157 6.732-16.956c-13.413 0.152-21.55 0.231-24.419 0.231-6.509 0-16.084-0.078-28.719-0.231-3.401 12.777-8.31 27.798-14.725 45.067h-58.471c-6.731-13.631-13.696-28.653-20.89-45.067-14.419 0.152-23.255 0.231-26.509 0.231-5.893 0-15.39-0.078-28.489-0.231zM408.692 369.004h36.078c-8.965 27.287-13.877 42.322-14.724 45.107-5.107-11.366-9.441-20.68-12.996-27.943l-8.357-17.164zM670.471 328.816c-0.929-4.554-2.052-10.902-3.368-19.048-1.318-8.144-2.207-14.457-2.67-18.933-16.572-2.477-31.362-3.717-44.371-3.717-12.544 0-24.219 1.568-35.021 4.705-10.802 3.134-20.713 8.286-29.735 15.448-9.020 7.16-15.467 15.583-19.337 25.262-3.873 9.679-5.809 20.519-5.809 32.523 0 14.013 2.615 26.617 7.841 37.806 5.226 11.191 12.735 20.519 22.533 27.995 9.794 7.469 20.54 12.813 32.232 16.028 11.692 3.212 23.771 4.819 36.239 4.819 11.46 0 25.631-1.472 42.512-4.412l0.232-9.758c0.152-4.258 0.388-8.944 0.698-14.053l0.813-13.243c-9.058 2.168-16.396 3.639-22.011 4.415-5.614 0.773-10.821 1.16-15.622 1.16-10.453 0-19.862-2.091-28.225-6.271-8.363-4.181-14.945-10.263-19.745-18.237-4.802-7.976-7.203-16.804-7.203-26.481 0-8.829 2.013-16.396 6.039-22.708s9.468-11.19 16.321-14.635c6.854-3.448 15.312-5.169 25.379-5.169 5.497 0 11.48 0.444 17.946 1.337 6.464 0.89 14.577 2.61 24.332 5.168zM692.54 290.138c1.479 14.479 2.531 26.483 3.152 36.008 1.169 16.879 2.415 39.992 3.739 69.341 0.932 20.444 1.402 34.845 1.402 43.207v9.991c12.919-0.157 21.817-0.232 26.69-0.232 3.251 0 11.602 0.076 25.066 0.232l-5.488-86.765-2.805-71.781-25.179 0.231c-3.563-0.001-12.421-0.079-26.576-0.232zM750.732 373.826l26.019 35.399 21.023 29.478 6.504 9.981c14.404-0.157 24.159-0.232 29.272-0.232 1.392 0 10.645 0.076 27.759 0.232l-49.016-61.858-9.175-12.421 8.594-13.715 48.552-70.552-28.573 0.231c-6.198 0-16.689-0.078-31.479-0.231-9.985 18.828-26.48 46.724-49.479 83.687z"  horiz-adv-x="1024" />

    
    <glyph glyph-name="error" unicode="&#58919;" d="M1007.983 384c0 273.925-222.059 495.984-495.983 495.984s-495.983-222.059-495.983-495.984 222.059-495.984 495.984-495.984c113.738 0 221.668 38.428 308.797 107.831 10.452 8.326 12.175 23.547 3.85 33.998-8.326 10.452-23.547 12.175-33.998 3.85-78.637-62.639-175.963-97.291-278.648-97.291-247.2 0-447.595 200.395-447.595 447.595s200.394 447.596 447.594 447.596 447.595-200.395 447.595-447.595c0-84.755-23.573-165.977-67.401-236.329-7.066-11.341-3.599-26.263 7.742-33.329 11.341-7.066 26.263-3.599 33.329 7.742 48.576 77.975 74.718 168.049 74.718 261.916zM524.26 358.306l-152.261-155.044c-9.362-9.534-24.681-9.672-34.214-0.31s-9.672 24.681-0.31 34.214l152.876 155.669-152.876 155.669c-9.362 9.534-9.224 24.852 0.31 34.214 9.534 9.362 24.852 9.224 34.214-0.31l152.261-155.044 152.262 155.044c9.362 9.534 24.681 9.672 34.214 0.31s9.672-24.681 0.31-34.214l-152.876-155.669 152.876-155.669c9.362-9.533 9.224-24.852-0.31-34.214-9.534-9.362-24.852-9.224-34.214 0.31l-152.262 155.044z"  horiz-adv-x="1024" />

    
    <glyph glyph-name="batch-op" unicode="&#58881;" d="M181.085175 492.387406L181.861822 491.610759 479.787212 789.53615 425.430955 843.910468 181.085175 599.573719 72.399753 708.259141 18.034465 653.893853 180.317559 491.610759ZM448.585872 338.92738299999996L53.426087 338.92738299999996c-19.542605 0-35.382591-15.839986-35.382591-35.382591l0-395.159785c0-19.542605 15.839986-35.391622 35.382591-35.391622l395.159785 0c19.542605 0 35.382591 15.849017 35.382591 35.391622L483.968463 303.54479200000003C483.968463 323.087397 468.128477 338.92738299999996 448.585872 338.92738299999996zM448.658118-95.16408899999999L53.353841-95.16408899999999 53.353841 307.075827l395.304277 0L448.658118-95.16408899999999zM979.58663 338.92738299999996L584.417815 338.92738299999996c-19.542605 0-35.382591-15.839986-35.382591-35.382591l0-395.159785c0-19.542605 15.839986-35.391622 35.382591-35.391622l395.159785 0c19.542605 0 35.382591 15.849017 35.382591 35.391622L1014.96019 303.54479200000003C1014.969221 323.087397 999.129235 338.92738299999996 979.58663 338.92738299999996zM979.658876-95.16408899999999L584.345568-95.16408899999999 584.345568 307.075827l395.304277 0L979.649846-95.16408899999999zM979.58663 896L584.417815 896c-19.542605 0-35.382591-15.839986-35.382591-35.382591l0-395.159785c0-19.542605 15.839986-35.382591 35.382591-35.382591l395.159785 0c19.542605 0 35.382591 15.839986 35.382591 35.382591L1014.96019 860.617409C1014.969221 880.160014 999.129235 896 979.58663 896zM979.658876 461.908528L584.345568 461.908528 584.345568 864.157474l395.304277 0L979.649846 461.908528z"  horiz-adv-x="1024" />

    
    <glyph glyph-name="star" unicode="&#59187;" d="M1024 493.851388c0 15.180828-11.484233 24.615229-34.469943 28.311824L680.617553 567.078461 542.157967 847.084237c-7.789793 16.821125-17.849274 25.227377-30.154733 25.227377-12.303304 0-22.356318-8.406252-30.152578-25.227377L343.384602 567.078461 34.45701 522.163212C11.488544 518.466617 0 509.032216 0 493.851388c0-8.619641 5.129969-18.465733 15.387751-29.542586l224.002896-217.846934L186.467905-61.226341c-0.821226-5.746427-1.228606-9.86118-1.228606-12.311925 0-8.61533 2.151138-15.894282 6.457726-21.847632 4.304432-5.961972 10.762158-8.92787 19.381799-8.92787 7.38888 0 15.590364 2.450746 24.615229 7.378102l276.302714 145.247096 276.322113-145.247096c8.630418-4.927357 16.834058-7.378102 24.606607-7.378102 8.23166 0 14.473841 2.965898 18.780428 8.92787 4.293655 5.944729 6.446948 13.232302 6.446948 21.847632 0 5.326115-0.206923 9.427935-0.618614 12.311925l-52.927054 307.688209 223.384282 217.846934C1018.673885 474.97612 1024 484.826522 1024 493.851388z"  horiz-adv-x="1025" />

    
    <glyph glyph-name="checkbox-active" unicode="&#58973;" d="M841.19 830.186h-654.407c-65.709 0-118.982-53.247-118.982-118.982v-654.407c0-65.678 53.274-118.983 118.982-118.983h654.407c65.71 0 118.983 53.306 118.983 118.983v654.407c0.001 65.736-53.273 118.982-118.983 118.982M824.109 491.625l-358.227-358.256c-23.122-23.092-60.536-23.092-83.602 0-5.228 5.228-8.888 11.302-11.793 17.66-5.404 2.789-10.865 5.782-15.455 10.315l-123.223 123.252c-23.181 23.211-23.181 60.857 0 84.125 23.297 23.209 60.944 23.209 84.124 0l109.050-109.108 315.641 315.586c23.009 23.036 60.422 23.036 83.485 0 23.123-23.065 23.123-60.478-0-83.573z"  horiz-adv-x="1024" />

    
    <glyph glyph-name="warning" unicode="&#59058;" d="M512-127.914c-282.296 0-511.979 229.661-511.979 511.957s229.682 511.957 511.979 511.957 511.979-229.661 511.979-511.957c0-97.074-27.337-191.552-78.964-273.241-8.455-13.304-26.006-17.381-39.439-8.883-13.304 8.433-17.295 26.071-8.883 39.396 45.877 72.548 70.123 156.49 70.123 242.728 0 250.797-204.019 454.837-454.816 454.837s-454.815-204.041-454.815-454.837 204.019-454.837 454.816-454.837c104.241 0 206.079 36.156 286.802 101.816 12.188 9.892 30.255 8.089 40.169-4.141 9.957-12.231 8.111-30.234-4.12-40.19-90.851-73.899-205.521-114.604-322.851-114.604zM512 260.466c-15.793 0-28.582 12.788-28.582 28.56v366.86c0 15.771 12.788 28.56 28.582 28.56s28.582-12.788 28.582-28.56v-366.86c-0.001-15.772-12.789-28.56-28.582-28.56zM512 83.634c-15.793 0-28.582 12.788-28.582 28.56v22.917c0 15.771 12.788 28.56 28.582 28.56s28.582-12.788 28.582-28.56v-22.917c-0.001-15.772-12.789-28.56-28.582-28.56z"  horiz-adv-x="1024" />

    
    <glyph glyph-name="chaxun" unicode="&#58947;" d="M695.276282 307.387453C727.02543 351.831136 745.948464 406.040678 745.948464 464.726236 745.948464 614.333716 624.416522 736 474.974232 736 325.531943 736 204 614.333716 204 464.726236 204 315.118755 325.531943 193.45247 474.974232 193.45247 533.233693 193.45247 587.112403 212.125149 631.326365 243.547693L747.16785 127.578157C755.929347 118.806973 774.400758 116.95327 783.207421 125.724454L815.137219 157.689546C823.898717 166.551155 819.788941 182.691946 810.982278 191.553555L695.276282 307.387453ZM249.11721 464.726236C249.11721 589.37653 350.41641 690.787706 474.92907 690.787706 599.441728 690.787706 700.740928 589.37653 700.740928 464.726236 700.740928 340.075939 599.441728 238.664765 474.92907 238.664765 350.41641 238.664765 249.11721 340.075939 249.11721 464.726236L249.11721 464.726236Z"  horiz-adv-x="1024" />

    
    <glyph glyph-name="input" unicode="&#58940;" d="M64 536v-296h896v296h-896zM896 304h-768v168h768v-168z"  horiz-adv-x="1024" />

    
    <glyph glyph-name="upload" unicode="&#59100;" d="M210.71872 220.24192c-11.32544 0-20.48-9.17504-20.48-20.48l0-125.60384c0-11.30496 9.15456-20.48 20.48-20.48l573.44 0c11.32544 0 20.48 9.17504 20.48 20.48l0 125.60384c0 11.30496-9.15456 20.48-20.48 20.48s-20.48-9.17504-20.48-20.48l0-105.12384-532.48 0 0 105.12384C231.19872 211.06688 222.04416 220.24192 210.71872 220.24192zM498.33984 179.28192c11.32544 0 20.48 9.17504 20.48 20.48l0 440.5248 129.90464-125.48096c3.95264-3.85024 9.09312-5.75488 14.21312-5.75488 5.36576 0 10.71104 2.08896 14.72512 6.2464 7.86432 8.13056 7.63904 21.0944-0.49152 28.95872l-164.31104 158.74048c-0.02048 0.02048-0.02048 0.02048-0.04096 0.04096L512.55296 703.2832c-0.73728 0.7168-1.65888 1.024-2.4576 1.59744-1.31072 0.94208-2.51904 1.98656-4.01408 2.60096-2.33472 0.96256-4.8128 1.41312-7.31136 1.47456-0.14336 0-0.28672 0.08192-0.43008 0.08192s-0.28672-0.08192-0.43008-0.08192c-2.49856-0.06144-4.95616-0.512-7.31136-1.47456-1.49504-0.6144-2.70336-1.65888-4.01408-2.58048C485.7856 704.3072 484.864 704 484.12672 703.2832l-0.24576-0.22528c-0.02048-0.02048-0.02048-0.02048-0.04096-0.04096l-164.31104-158.74048c-8.13056-7.86432-8.35584-20.82816-0.49152-28.95872 7.82336-8.13056 20.84864-8.37632 28.93824-0.49152l129.90464 125.48096 0-440.5248C477.85984 188.45696 487.0144 179.28192 498.33984 179.28192z"  horiz-adv-x="1024" />

    
    <glyph glyph-name="tubiao05" unicode="&#58888;" d="M984.11 581.79c-25.582 60.486-62.22 114.757-108.832 161.369-46.683 46.683-100.955 83.322-161.513 108.904-62.582 26.521-129.138 39.963-197.718 39.963-68.58 0-135.136-13.441-197.718-39.963-60.558-25.582-114.902-62.148-161.513-108.904-46.683-46.611-83.322-100.882-108.832-161.369-26.521-62.726-40.035-129.21-40.035-197.718 0-68.58 13.514-135.136 40.035-197.79 25.51-60.486 62.148-114.757 108.759-161.441 46.683-46.683 100.955-83.25 161.513-108.832 62.582-26.449 129.138-39.963 197.718-39.963 127.187 0 248.882 47.189 342.682 133.041 8.311 7.516 8.816 20.379 1.301 28.689-7.516 8.166-20.451 8.672-28.689 1.229-86.285-78.914-198.224-122.273-315.294-122.273-63.16 0-124.369 12.285-181.964 36.783-55.717 23.414-105.58 57.162-148.578 100.088-42.926 42.998-76.674 92.861-100.16 148.65-24.281 57.379-36.639 118.66-36.639 181.82 0 63.088 12.357 124.296 36.783 181.82 23.486 55.717 57.234 105.652 100.16 148.722 42.926 42.926 92.861 76.601 148.578 100.16 57.523 24.209 118.804 36.639 181.892 36.639 63.16 0 124.296-12.43 181.964-36.783 55.644-23.559 105.652-57.234 148.578-100.16 42.926-43.070 76.674-93.006 100.16-148.722 24.353-57.523 36.783-118.732 36.783-181.82 0-83.322-22.258-165.126-64.172-236.452-5.781-9.756-2.457-22.258 7.299-27.894 9.611-5.637 22.041-2.457 27.75 7.299 45.672 77.613 69.736 166.499 69.736 257.12-0.145 68.58-13.586 135.064-40.035 197.79v0zM610.425 274.012h58.535v192.659c0 37.072-29.195 67.062-64.967 67.062-35.844 0-65.039-29.99-65.039-67.062v-175.605c0-62.293-49.791-112.951-110.927-112.951s-110.927 50.586-110.927 112.951l-0 183.12h-58.463l81.443 140.99 81.371-140.99-58.463-0v-183.048c0-37 29.123-67.062 64.967-67.062s65.039 30.062 65.039 67.062v174.087c0 63.81 49.719 114.396 110.927 114.396s110.927-50.586 110.927-112.951v-192.659h58.463l-81.443-141.062-81.443 141.062z"  horiz-adv-x="1025" />

    
    <glyph glyph-name="info" unicode="&#58894;" d="M465.022 130.017c-10.448 0-18.878 3.314-25.074 9.871-6.124 6.413-9.223 15.347-9.223 26.587 0 33.504 20.463 115.427 60.956 243.535 1.801 5.764 2.666 10.88 2.666 15.275 0 3.747-1.297 4.467-3.747 4.467-4.755 0-10.448-1.945-16.644-5.836-6.557-4.107-21.904-17.581-45.393-40.061l-2.162-2.017-23.417 17.509 2.666 2.882c27.164 29.325 52.382 50.436 74.862 62.829 22.985 12.753 42.222 18.878 58.65 18.878 9.367 0 16.716-2.162 22.048-6.341 5.476-4.467 8.142-10.448 8.142-17.797 0-8.142-8.646-40.493-26.515-98.639-28.244-93.163-42.655-149.94-42.655-168.889 0-3.026 0.721-5.332 2.090-7.133 1.945-2.45 3.026-2.45 3.314-2.45 4.395 0 18.445 6.269 64.27 48.203l2.378 2.234 20.895-19.958-2.738-2.45c-37.683-34.657-64.486-56.272-81.851-65.927-17.725-9.871-31.919-14.771-43.519-14.771zM574.181 551.953c-9.079 0-16.716 3.17-22.768 9.367-6.052 6.269-9.151 14.41-9.151 24.281 0 12.753 4.323 23.777 12.753 32.784 8.574 9.006 18.95 13.618 30.694 13.618 9.367 0 17.004-3.098 23.057-9.223 6.124-5.98 9.151-13.834 9.151-23.273 0-12.465-4.467-23.705-13.33-33.144-8.862-9.583-19.166-14.41-30.406-14.41zM979.4 579.188c-25.578 60.596-62.325 114.995-109.086 161.684s-101.161 83.436-161.828 109.086c-62.613 26.515-129.261 40.061-198.070 40.061-68.665 0-135.385-13.474-198.070-40.061-60.596-25.65-115.067-62.325-161.756-109.086-46.762-46.69-83.436-101.089-109.014-161.684-26.587-62.901-40.061-129.477-40.061-198.214 0-68.665 13.474-135.313 40.061-198.142 25.578-60.596 62.253-114.995 109.086-161.756 46.618-46.69 101.089-83.436 161.756-109.086 62.685-26.515 129.405-39.989 198.070-39.989 127.532 0 249.443 47.266 343.399 133.296 8.286 7.565 8.79 20.463 1.225 28.821-7.493 8.214-20.319 8.646-28.605 1.153-86.39-79.041-198.647-122.488-315.947-122.488-63.189 0-124.578 12.321-182.291 36.818-55.624 23.489-105.844 57.281-148.715 100.368-43.087 43.015-76.807 93.019-100.368 148.787-24.498 57.641-36.963 119.030-36.963 182.219 0 63.261 12.465 124.578 36.963 182.219 23.345 55.768 57.137 105.844 100.224 148.931 42.943 43.087 93.091 76.735 148.715 100.368 57.786 24.426 119.102 36.818 182.291 36.818 63.261 0 124.578-12.393 182.291-36.818 55.696-23.633 105.916-57.281 148.787-100.368 43.015-43.087 76.735-93.091 100.368-148.931 24.498-57.641 36.818-118.958 36.818-182.219 0-83.508-22.192-165.359-64.198-236.906-5.836-9.727-2.522-22.192 7.205-27.884 9.655-5.62 22.12-2.45 27.812 7.277 45.753 77.816 69.962 166.872 69.962 257.585-0 68.665-13.474 135.241-40.061 198.142v0zM979.4 579.188z"  horiz-adv-x="1024" />

    
    <glyph glyph-name="lg-left" unicode="&#58897;" d="M680.974 664.159l-27.401 27.112-310.548-307.271 310.548-307.271 27.401 27.112-283.147 280.159z"  horiz-adv-x="1024" />

    
    <glyph glyph-name="back2" unicode="&#58971;" d="M899.481544 337.806935c-10.68127 1.327228-21.37789-5.308913-22.705118-15.892969-25.3739-139.201365-130.854257-253.172093-268.393773-288.97246-196.282409-50.366108-396.579247 66.275449-448.656323 259.775488-50.733475 194.876386 66.770729 393.700687 261.71056 445.394023 94.815459 25.167193 193.628976 10.585079 279.090393-38.470173 84.10349-49.03888 145.533584-128.552841 169.581279-222.665289 2.654456-10.616802 13.351076-17.220197 24.031323-14.565741 10.664897 2.638083 17.33276 13.223163 14.678304 23.871687-28.04473 104.681154-94.80011 192.189184-188.271967 246.505254-93.472881 54.363142-202.950272 68.928882-308.447001 42.419111-217.644949-56.985876-347.173001-278.339286-291.098891-493.073951 48.079018-181.605128 213.646891-302.1946 393.924791-302.1946 34.712593 0 68.081585 3.965312 102.81055 13.254885 153.559375 39.749306 269.721001 165.664064 297.765731 320.758397 2.65548 11.912307-5.338588 22.529109-16.019858 23.856338zM514.926144-25.338852c-187.233312 0-351.32967 125.866662-399.041322 306.160935C58.963415 498.75458 191.242114 722.810542 410.756643 780.291698c34.456766 8.66638 69.616544 13.047154 104.553241 13.047154 73.006757 0 144.894018-19.379373 207.92354-55.994292 94.592378-55.002708 162.305573-143.711076 190.735065-249.750157 3.357468-13.351076-4.956895-26.941606-18.531052-30.299073a25.7515 25.7515 0 0 0-6.060019-0.735757c-11.528568 0-21.585621 7.867178-24.431435 19.138895-23.567765 92.416829-82.935897 170.34876-167.102833 219.435735-56.825217 32.586163-120.350019 49.854455-183.667089 49.854455-30.747281 0-61.494563-4.045129-91.361801-11.960403-191.997825-50.925856-307.727617-247.832482-257.936607-438.981986 42.371016-157.541059 186.753381-267.562848 351.057471-267.546476 30.602995 0 61.254086 3.885494 91.137697 11.56029 135.556349 35.255968 239.373833 147.052171 264.476557 284.766672 1.583055 12.519128 14.485923 21.952988 28.572755 20.193925 6.65149-0.799202 12.679787-4.460592 16.612353-10.008958 4.14132-5.820566 5.548366-13.015432 3.948939-20.210297-28.396747-157.077501-146.812717-284.607036-301.619502-324.707337-33.785477-9.035794-67.873854-13.43294-104.137779-13.43294z m0.38374 808.172443c-34.056654 0-68.337411-4.269233-101.915158-12.71151C199.571826 714.127789 70.683341 495.779829 126.134257 283.443793c46.496987-175.593204 206.372208-298.245661 388.79291-298.245661 35.335786 0 68.51342 4.269233 101.435227 13.095249 150.857846 39.045271 266.219247 163.313529 293.928333 316.585355 0.991584 4.476965 0.192382 8.66638-2.206248 12.055571-2.238994 3.133364-5.596462 5.212722-9.273201 5.644557-7.163143 0.895393-15.733333-3.101641-16.773012-11.336187-25.8876-142.000108-132.74328-257.07396-272.296663-293.369607-30.762631-7.930623-62.325487-11.927657-93.808526-11.927657-169.101349 0-317.688479 113.267716-361.323278 275.429003-51.245128 196.730617 67.857481 399.408689 265.46814 451.80606a366.581026 366.581026 0 0 0 94.096075 12.311397c65.187675 0 130.534985-17.73185 188.992375-51.276851 86.661755-50.525744 147.756205-130.759089 172.059728-225.926566 1.966795-7.770987 9.91379-12.727882 17.635659-10.80816 7.898901 1.983167 12.743232 9.849322 10.824533 17.524119-27.66099 103.241362-93.647867 189.662641-185.809893 243.24193-61.398372 35.719526-131.462101 54.587246-202.566532 54.587246zM732.55472 385.518586c0 10.616802-9.337669 19.891026-20.017916 19.891026H392.081305l149.546991 148.459217c8.010441 7.946996 8.010441 19.874653 0 27.821649-8.026814 7.946996-20.034289 7.946996-28.04473 0L330.65121 400.1007c-5.340635-5.308913-6.683213-14.582113-4.013406-21.201881 1.342578-2.669806 2.669806-5.308913 4.013406-6.619768l182.932356-181.605128c4.013407-3.965312 9.354042-5.29254 14.693654-5.29254 5.324262 0 10.664897 1.327228 14.678304 5.29254 8.010441 7.962346 8.010441 19.85828 0 27.836999L392.081305 365.628584h320.454476c12.024871 0 20.018939 9.273201 20.018939 19.890002zM528.27722 180.122613c-7.674796 0-13.862729 2.302439-18.451234 6.843872L326.89363 368.554216c-1.935072 1.918699-3.421936 4.877077-4.988618 7.994068-3.805676 9.385764-1.63115 20.705578 4.988618 27.261901l182.932356 181.605127c4.892427 4.828982 11.192923 7.515161 17.779945 7.515161s12.887518-2.686179 17.763572-7.515161c4.877077-4.844332 7.563256-11.128455 7.563257-17.635659 0-6.53995-2.686179-12.791327-7.563257-17.635659L404.872632 410.669406h307.663149c13.495362 0 25.326828-11.751648 25.326828-25.15082 0-14.086833-11.112082-25.134447-25.326828-25.134446h-307.503513L546.663986 222.254176c4.9088-4.877077 7.594979-11.112082 7.594978-17.668405 0-6.523577-2.686179-12.791327-7.563256-17.62031-4.572132-4.54041-10.775414-6.842849-18.418488-6.842848z m-0.671289 402.287249c-3.75758 0-7.402597-1.598404-10.281157-4.445242L334.392418 396.375865c-3.581572-3.565199-4.844332-10.505261-2.830465-15.525601 0.735757-1.423419 2.110057-4.14132 2.830465-4.860705l182.932356-181.605128c2.526543-2.462075 6.203282-3.741207 10.952446-3.741207 4.797259 0 8.378831 1.231037 10.920724 3.741207 5.963829 5.915733 5.963829 14.502295 0 20.402679l-150.841474 147.100266a5.218862 5.218862 0 0 0-1.182942 5.756098c0.799202 1.966795 2.734274 3.2623 4.9088 3.2623h320.454476c9.561773 0 14.7264 7.515161 14.7264 14.613836 0 7.658424-7.018857 14.613836-14.7264 14.613836H392.081305c-2.158153 0-4.093225 1.279133-4.9088 3.2623s-0.367367 4.221138 1.15122 5.724375l149.546991 148.475589c2.877537 2.830465 4.460592 6.459109 4.460591 10.184967s-1.583055 7.355525-4.460591 10.184966c-2.877537 2.844791-6.523577 4.444219-10.264785 4.444219z"  horiz-adv-x="1024" />

    
    <glyph glyph-name="bangekongxing" unicode="&#58887;" d="M286.244667 242.667714l-63.999943-368.00059 333.333494 173.332718 330.666369-175.999842-63.999942 368.00059 269.332631 263.999302-370.666794 53.333286L555.578218 896 387.578829 557.332257 19.57824 503.999892l266.666427-261.332178z m266.665506-106.666571V709.335342l2.666204 5.333328 111.998979-229.334047 253.334486-37.33238-183.998454-178.666966 42.665708-250.666441-223.999798 117.333228h-2.665284z"  horiz-adv-x="1186" />

    
    <glyph glyph-name="textarea" unicode="&#59679;" d="M896.256 322.2016l-175.36-187.0848h175.36zM133.1712 624.9984h54.8352v-301.824H133.1712zM957.952 739.0208H412.0576v-53.6576h542.0032v-599.5008H412.0576v-56.8832h563.5072c18.944 7.0656 32.5632 25.088 33.3312 46.5408V689.2544a51.3024 51.3024 0 0 1-50.944 49.7664zM70.0416 85.86239999999998V685.3632h341.9648V739.0208H66.1504c-28.16 0-51.0464-23.1424-51.0464-51.6608v-1.9968h0.1024v-460.1856l-0.1024-69.12v-78.592c-0.0512-21.5552 13.2608-40.8576 33.4336-48.4352h363.52v56.8832l-342.016-0.0512zM896.256 322.2016l-175.36-187.0848h175.36zM133.1712 624.9984h54.8352v-301.824H133.1712z"  horiz-adv-x="1024" />

    
    <glyph glyph-name="loading" unicode="&#59489;" d="M864 572.8c-9.6 0-22.4 6.4-25.6 16C764.8 700.8 643.2 768 512 768c-19.2 0-32 12.8-32 32s12.8 32 32 32c153.6 0 297.6-76.8 377.6-208 9.6-16 6.4-35.2-9.6-44.8-3.2-3.2-9.6-6.4-16-6.4z"  horiz-adv-x="1024" />

    
    <glyph glyph-name="angle-down" unicode="&#59001;" d="M512.247172 274.891034l-203.599448 199.574069a10.910897 10.910897 0 0 0 15.218759 15.571863l188.380689-184.637794 187.851035 184.637794a10.910897 10.910897 0 0 0 15.289379-15.536552l-203.140414-199.60938z"  horiz-adv-x="1024" />

    
    <glyph glyph-name="angle-left" unicode="&#59002;" d="M610.233379 177.363862a10.875586 10.875586 0 0 0-7.768276 3.283862l-199.574069 203.069793 199.574069 203.599449a10.840276 10.840276 0 1 0 15.536552-15.218759l-184.637793-188.345379 184.637793-187.851035a10.910897 10.910897 0 0 0-7.768276-18.537931z"  horiz-adv-x="1024" />

    
    <glyph glyph-name="angle-right" unicode="&#59003;" d="M413.766621 177.399172a10.946207 10.946207 0 0 0-7.803587 18.502621l184.637794 188.345379-184.637794 187.851035a10.910897 10.910897 0 0 0 15.536552 15.254069l199.574069-203.105104-199.538758-203.599448a11.016828 11.016828 0 0 0-7.768276-3.248552z"  horiz-adv-x="1024" />

    
    <glyph glyph-name="angle-up" unicode="&#59004;" d="M316.239448 274.891034a10.875586 10.875586 0 0 0-7.591724 18.643863l203.105104 199.574069 203.599448-199.574069a10.910897 10.910897 0 0 0-15.254069-15.536552l-188.345379 184.637793-187.851035-184.637793a10.946207 10.946207 0 0 0-7.662345-3.107311z"  horiz-adv-x="1024" />

    
    <glyph glyph-name="dropdown" unicode="&#60825;" d="M649.242 443.472h-274.484l137.242-137.244zM877.979 855.197h-731.96c-77.769 0-137.242-59.47-137.242-137.242v-640.465c0-77.77 59.472-137.241 137.242-137.241h731.96c77.77 0 137.242 59.472 137.242 137.242v640.464c0 77.77-59.472 137.242-137.242 137.242zM923.727 77.49199999999996c0-27.449-18.298-45.748-45.748-45.748h-731.96c-22.872 0-45.748 18.298-45.748 45.748v457.474h823.453v-457.474zM923.727 626.461h-823.453v91.494c0 27.45 18.298 45.749 45.748 45.749h731.96c22.872 0 45.748-18.298 45.748-45.748v-91.495z"  horiz-adv-x="1024" />

    
    <glyph glyph-name="success" unicode="&#58902;" d="M464.248 218.512c9.967-9.161 25.418-8.714 34.838 1.009l299.819 309.441c9.598 9.906 9.349 25.718-0.558 35.317-9.906 9.598-25.718 9.348-35.316-0.558L463.21 254.28l34.84 1.008L316.608 422.06c-10.156 9.334-25.955 8.668-35.29-1.487-9.334-10.156-8.668-25.955 1.487-35.29l181.442-166.77zM1024 384C1024 666.77 794.77 896 512 896S0 666.77 0 384s229.23-512 512-512c117.41 0 228.826 39.669 318.768 111.313 10.79 8.595 12.569 24.308 3.975 35.097-8.594 10.789-24.308 12.568-35.097 3.974C718.47-42.277 618.002-78.049 512-78.049 256.818-78.049 49.951 128.818 49.951 384S256.818 846.049 512 846.049 974.049 639.182 974.049 384c0-87.493-24.334-171.337-69.578-243.96-7.294-11.708-3.716-27.112 7.992-34.405 11.707-7.294 27.11-3.716 34.405 7.991C997.014 194.12 1024 287.102 1024 384z"  horiz-adv-x="1024" />

    
    <glyph glyph-name="outdent" unicode="&#58882;" d="M911.2 142.668h-510.4c-24.8 0-44.8 21.6-44.8 48.001s20 48 44.8 48.001h510.4c24.8 0 44.8-21.6 44.8-48.001s-20-48-44.8-48.001zM911.2 366.668h-510.4c-24.8 0-44.8 21.6-44.8 48.001s20 48 44.8 48.001h510.4c24.8 0 44.8-21.6 44.8-48.001s-20-48-44.8-48.001zM908 582.668h-784c-26.401 0-48.001 21.6-48 48s21.6 48.001 48 48h784c26.401 0 48.001-21.6 48-48s-21.6-48.001-48-48zM300 142.668l-224 160 224 160v-320zM124 22.668000000000006h784c26.401 0 48.001-21.6 48-48s-21.6-48.001-48-48h-784c-26.401 0-48.001 21.6-48 48s21.6 48.001 48 48z"  horiz-adv-x="1024" />

    
    <glyph glyph-name="button" unicode="&#58883;" d="M840.533333 121.17333299999996H183.466667a134.826667 134.826667 0 0 0-140.8 140.8V506.026667a134.826667 134.826667 0 0 0 140.8 140.8h657.066666a134.826667 134.826667 0 0 0 140.8-140.8v-244.053334a134.826667 134.826667 0 0 0-140.8-140.8zM183.466667 571.733333a59.733333 59.733333 0 0 1-65.706667-65.706666v-244.053334A59.733333 59.733333 0 0 1 183.466667 196.26666699999998h657.066666a59.733333 59.733333 0 0 1 65.706667 65.706666V506.026667A59.733333 59.733333 0 0 1 840.533333 571.733333z"  horiz-adv-x="1024" />

    
    <glyph glyph-name="quit" unicode="&#58948;" d="M676.2 37.200000000000045H292.9c-30.2 0-54.8 24.5-54.8 54.8V676.1c0 30.2 24.5 54.8 54.8 54.8h401.6c10.1 0 18.3 8.2 18.3 18.3 0 10.1-8.2 18.3-18.3 18.3H292.9c-50.4 0-91.3-40.9-91.3-91.3V92c0-50.4 40.9-91.3 91.3-91.3h401.6c10.1 0 18.3 8.2 18.3 18.3 0 10.1-8.2 18.3-18.3 18.3l-18.3-0.1zM881.9 403.8L701.2 584.5c-7.1 7.1-18.7 7.1-25.8 0-7.1-7.1-7.1-18.7 0-25.8L825 409.1H467.4c-10.1 0-18.3-8.2-18.3-18.3 0-10.1 8.2-18.3 18.3-18.3H825L675.4 223c-7.1-7.1-7.1-18.7 0-25.8 7.1-7.1 18.7-7.1 25.8 0l180.7 180.7c7.2 7.2 7.2 18.7 0 25.9z"  horiz-adv-x="1024" />

    
    <glyph glyph-name="indent" unicode="&#58889;" d="M112.79999999999995 539.9999999999998L623.1999999999999 540c24.799999999999997 8.881784197001252e-15 44.8-21.59999999999998 44.800000000000004-47.99999999999997s-19.999999999999986-48-44.799999999999976-48.000000000000014l-510.4-1.7053025658242404e-13c-24.799999999999997-8.881784197001252e-15-44.8 21.59999999999998-44.800000000000004 47.99999999999997S87.99999999999983 539.9999999999999 112.79999999999995 539.9999999999998zM112.80000000000013 315.9999999999998L623.2 316c24.799999999999997 8.881784197001252e-15 44.8-21.59999999999998 44.800000000000004-47.99999999999997s-19.999999999999986-48-44.799999999999976-48.000000000000014l-510.4-1.7053025658242404e-13c-24.799999999999997-8.881784197001252e-15-44.8 21.59999999999998-44.800000000000004 47.99999999999997S88.00000000000006 315.9999999999998 112.80000000000013 315.9999999999998zM116 99.99999999999977l784 2.8421709430404007e-13c26.4 1.7763568394002505e-15 48.00000000000001-21.599999999999987 48.00000000000002-47.999999999999986 1.7763568394002505e-15-26.4-21.599999999999987-48.00000000000001-47.999999999999986-48.00000000000002l-784-2.8421709430404007e-13c-26.4-1.7763568394002505e-15-48.00000000000001 21.599999999999987-48.00000000000002 47.999999999999986C68.00000000000006 78.39999999999998 89.60000000000025 100 116 99.99999999999977zM724 540l224-159.99999999999994-223.99999999999991-160.00000000000006L724 540zM899.9999999999998 660l-784-2.8421709430404007e-13c-26.4-1.7763568394002505e-15-48.00000000000001 21.599999999999987-48.00000000000002 47.999999999999986s21.599999999999987 48.00000000000001 47.999999999999986 48.00000000000002l784 2.8421709430404007e-13c26.4 1.7763568394002505e-15 48.00000000000001-21.599999999999987 48.00000000000002-47.999999999999986S926.3999999999999 660 899.9999999999998 660z"  horiz-adv-x="1024" />

    


  </font>
</defs>
</svg>
