<?xml version="1.0" standalone="no"?>
<!DOCTYPE svg PUBLIC "-//W3C//DTD SVG 1.1//EN" "http://www.w3.org/Graphics/SVG/1.1/DTD/svg11.dtd" >
<svg xmlns="http://www.w3.org/2000/svg">
<metadata>
Created by FontForge 20120731 at Fri May 19 17:23:54 2017
 By admin
</metadata>
<defs>
<font id="cmui" horiz-adv-x="1024" >
  <font-face 
    font-family="cmui"
    font-weight="500"
    font-stretch="normal"
    units-per-em="1024"
    panose-1="2 0 6 3 0 0 0 0 0 0"
    ascent="896"
    descent="-128"
    x-height="792"
    bbox="0 -224 1069.5 896"
    underline-thickness="0"
    underline-position="0"
    unicode-range="U+0078-E88B"
  />
<missing-glyph 
 />
    <glyph glyph-name=".notdef" 
 />
    <glyph glyph-name=".notdef" 
 />
    <glyph glyph-name=".null" horiz-adv-x="0" 
 />
    <glyph glyph-name="nonmarkingreturn" horiz-adv-x="341" 
 />
    <glyph glyph-name="x" unicode="x" horiz-adv-x="1001" 
d="M281 543q-27 -1 -53 -1h-83q-18 0 -36.5 -6t-32.5 -18.5t-23 -32t-9 -45.5v-76h912v41q0 16 -0.5 30t-0.5 18q0 13 -5 29t-17 29.5t-31.5 22.5t-49.5 9h-133v-97h-438v97zM955 310v-52q0 -23 0.5 -52t0.5 -58t-10.5 -47.5t-26 -30t-33 -16t-31.5 -4.5q-14 -1 -29.5 -0.5
t-29.5 0.5h-32l-45 128h-439l-44 -128h-29h-34q-20 0 -45 1q-25 0 -41 9.5t-25.5 23t-13.5 29.5t-4 30v167h911zM163 247q-12 0 -21 -8.5t-9 -21.5t9 -21.5t21 -8.5q13 0 22 8.5t9 21.5t-9 21.5t-22 8.5zM316 123q-8 -26 -14 -48q-5 -19 -10.5 -37t-7.5 -25t-3 -15t1 -14.5
t9.5 -10.5t21.5 -4h37h67h81h80h64h36q23 0 34 12t2 38q-5 13 -9.5 30.5t-9.5 34.5q-5 19 -11 39h-368zM336 498v228q0 11 2.5 23t10 21.5t20.5 15.5t34 6h188q31 0 51.5 -14.5t20.5 -52.5v-227h-327z" />
    <glyph glyph-name="change" unicode="&#xe600;" 
d="M799 -122q0 -17 -12 -29t-29 -12h-656q-17 0 -29 12t-12 29v348q0 17 12 29t29 12h349v61h-390q-25 0 -43 -18t-18 -43v-430q0 -25 18 -43t43 -18h738q25 0 43 18t18 43v82h-61v-41zM242 500l-58 26q38 71 94.5 130t110.5 81v0v0q22 8 22 31q0 13 -9.5 22.5t-23.5 9.5
q-4 0 -9 -2v0h-1q-5 -1 -9 -4q-72 -37 -134.5 -100.5t-100.5 -139.5l-69 31l26 -191zM799 328h-246v-61h205q17 0 29 -12t12 -29v-205h61v246q0 25 -18 43t-43 18zM963 798h-431q-25 0 -43 -18t-18 -43v-736q0 -25 18 -43t43 -18h431q25 0 43 18t18 43v736q0 25 -18 43
t-43 18zM963 42v0q0 -17 -12 -29t-29 -12h-349q-17 0 -29 12t-12 29v654q0 17 12 29t29 12h349q17 0 29 -12t12 -29v-654z" />
    <glyph glyph-name="close" unicode="&#xe60d;" 
d="M527.5 674q-96.5 0 -177.5 -47t-128.5 -128.5t-47.5 -177.5t47.5 -177.5t128.5 -129t177.5 -47.5t177.5 47.5t128.5 129t47.5 177.5t-47.5 177.5t-128.5 128.5t-177.5 47zM685 195q7 -6 7 -15.5t-7 -16.5t-16.5 -7t-15.5 7l-126 125l-125 -125q-6 -7 -15.5 -7t-16.5 7
t-7 16.5t7 15.5l125 126l-125 125q-7 7 -7 16.5t7 16t16.5 6.5t15.5 -7l125 -125l126 125q6 7 15.5 7t16.5 -6.5t7 -16t-7 -16.5l-125 -125z" />
    <glyph glyph-name="close1" unicode="&#xe659;" 
d="M580 300l190 190q14 14 14 34t-14 34t-34 14t-34 -14l-190 -190l-190 190q-14 14 -34 14t-34 -14t-14 -34t14 -34l190 -190l-190 -190q-14 -14 -14 -34t14 -34t34 -14t34 14l190 190l190 -190q14 -14 34 -14t34 14t14 34t-14 34z" />
    <glyph glyph-name="refresh" unicode="&#xe60f;" 
d="M894 468q0 4 -1 8q-2 4 -7 6q-2 2 -5 3q-8 3 -14 -2q-4 -2 -7 -3l-31 -16q-46 89 -130.5 141.5t-185.5 52.5q-107 0 -195 -59.5t-131 -157.5l-0.5 -0.5l-0.5 -0.5q0 -1 -1 -2.5l-1 -1.5l1 -1l-1 -5q0 -11 8 -19t19 -8t19 8t8 19v0q41 81 112.5 128t161.5 47q89 0 161 -43
t112 -118l-38 -23q-4 -2 -8 -5q-9 -2 -12 -11q-2 -8 2 -16t12 -12l111 -50q2 -2 5 -3q6 -3 12 1q6 3 8 10q1 2 1 6l16 116q1 5 0 11zM839 173h-1q1 5 1 6q0 11 -8 18.5t-19.5 7.5t-19.5 -7.5t-8 -18.5v-1v1q-40 -81 -112 -128t-161 -47t-161 42.5t-113 118.5l39 23q4 2 7 5
q10 1 12 11q3 7 -1 15.5t-12 12.5l-111 50q-3 2 -5 3q-6 2 -12 -1q-7 -3 -9 -10q-1 -3 -1 -6l-16 -116q-1 -6 1 -12q-1 -4 1 -7q2 -4 6 -6q3 -3 5 -4q8 -3 15 3q3 1 6 3l31 16q47 -89 131 -142t185 -53q108 0 196 59.5t131 157.5q0 1 0.5 1t0.5 1l1 1.5t1 2.5z" />
    <glyph glyph-name="close2" unicode="&#xe60b;" 
d="M708 461l-23 23l-173 -172l-173 172l-23 -23l172 -173l-172 -173l23 -23l173 172l173 -172l23 23l-172 173z" />
    <glyph glyph-name="check" unicode="&#xe62f;" 
d="M790 538l-411 -395l-145 143q-11 11 -27 11t-27 -11.5t-11 -27t11 -26.5l171 -169q11 -11 27 -11t27 10l439 421q11 11 11.5 26.5t-11 27t-27.5 12t-27 -10.5z" />
    <glyph glyph-name="download" unicode="&#xe614;" 
d="M1023 373q0 -75 -53.5 -128t-128.5 -53h-185q-9 0 -15 6t-6 14.5t6 14.5t15 6h185q58 0 99.5 41t41.5 99t-41 99.5t-99 41.5h-1q-10 0 -16 7t-5 16q2 16 2 28q0 95 -67 161.5t-161 66.5q-72 0 -131 -42q-57 -41 -82 -107q-4 -10 -15 -12.5t-19 5.5q-29 30 -71.5 30
t-72.5 -30t-30 -72v-2v-3q1 -16 -15 -20q-50 -14 -82 -56t-32 -95q0 -65 45.5 -110.5t110.5 -45.5h170q8 0 14 -6t6 -14.5t-6 -14.5t-14 -6h-170q-82 0 -139.5 57.5t-57.5 139.5q0 67 41 121q35 45 88 64q4 56 45.5 95t97.5 39q43 0 79 -24q30 61 85 100q70 50 155 50
q111 0 190 -79t79 -190q0 -5 -1 -11q68 -8 114.5 -59.5t46.5 -121.5zM629 75l-102 -102q-6 -6 -14.5 -6t-14.5 6l-102 102q-6 6 -6 14.5t6 14.5t14.5 6t14.5 -6l67 -67v359q0 8 6 14t14.5 6t14.5 -6t6 -14v-359l67 67q6 6 14.5 6t14.5 -6t6 -14.5t-6 -14.5z" />
    <glyph glyph-name="question" unicode="&#xe63e;" 
d="M549 203v-63q0 -8 -8 -8h-55q-8 0 -8 8v63q0 7 8 7h55q8 0 8 -7zM651 515q0 -44 -38 -96l-49 -67q-11 -15 -15 -26t-4 -29v-24q0 -7 -7 -7h-49q-7 0 -7 7v30q0 36 22 66l49 68q20 27 27.5 43t7.5 34q0 31 -20 49.5t-52 18.5q-62 0 -76 -69q-1 -7 -8 -6l-46 8q-7 1 -6 8
q8 54 44.5 85.5t93.5 31.5q59 0 96 -35t37 -90zM1024 384q0 -139 -70 -259q-5 -7 -13 -9.5t-15.5 2t-9.5 12.5t2 16q65 110 65 238q0 96 -37 183q-36 85 -101 150t-150 101q-87 37 -183 37t-183 -37q-85 -36 -150 -101t-101 -150q-37 -87 -37 -183t37 -183q36 -85 101 -150
t150 -101q87 -37 183 -37q88 0 170.5 32t147.5 91q6 6 14.5 5.5t14 -6.5t5.5 -14.5t-7 -14.5q-71 -65 -160 -99.5t-185 -34.5q-104 0 -199 40q-92 39 -163 110t-110 163q-40 95 -40 199t40 199q39 92 110 163t163 110q95 40 199 40t199 -40q92 -39 163 -110t110 -163
q40 -95 40 -199z" />
    <glyph glyph-name="exchange" unicode="&#xe660;" horiz-adv-x="1237" 
d="M508.5 604q-7.5 0 -13 -5t-5.5 -12v-501l-87 86q-5 5 -12.5 5t-13 -5t-5 -12.5t5.5 -12.5l148 -146v586q0 7 -5 12t-12.5 5zM741 -4q7 0 12.5 5t5.5 12v504l87 -87q5 -5 12.5 -5t13 5t5.5 12.5t-6 13.5l-148 148v-591q0 -7 5.5 -12t12.5 -5z" />
    <glyph glyph-name="top" unicode="&#xe605;" 
d="M187 152v263h-94v53h251v-53h-93v-263h-64zM364 308q0 48 15 81q11 24 29.5 43.5t40.5 28.5q30 12 68 12q70 0 112 -43t42 -120t-41.5 -120t-111.5 -43t-112 43t-42 118zM430 310q0 -53 25 -81t63 -28t62.5 27.5t24.5 82.5q0 54 -24 81t-63.5 27t-63.5 -27t-24 -82z
M721 152v316h102q58 0 76 -5q27 -7 45.5 -30.5t18.5 -61.5q0 -29 -10.5 -49t-27 -31.5t-33.5 -14.5q-23 -5 -66 -5h-41v-119h-64zM785 415v-90h34q38 0 51 5t20 15.5t7 24.5q0 17 -10 28.5t-26 13.5q-11 3 -46 3h-30z" />
    <glyph glyph-name="download1" unicode="&#xe67f;" 
d="M504 194v-6h32v5l4 3q6 5 41 34t67 56l32 27l-21 17l-123 -100v422h-32v-420l-122 100l-22 -19l141 -117zM776 263v-101q0 -28 -16.5 -49t-40.5 -21h-411q-18 0 -31 14.5t-13 32.5v123h-32v-131q0 -28 21 -49.5t47 -21.5h434q39 0 56.5 19.5t17.5 60.5v123h-32z" />
    <glyph glyph-name="angle" unicode="&#xe654;" 
d="M333 229l322 321l-28 29l-391 -390h552v40h-455zM466 369l-30 -28q46 -51 52 -118h42q-6 83 -64 146z" />
    <glyph glyph-name="dingwei" unicode="&#xe606;" 
d="M927 310v0h-54q-7 138 -104.5 236t-234.5 107v50q0 9 -6.5 15.5t-15.5 6.5t-15.5 -6.5t-6.5 -15.5v-49q-139 -8 -238 -106.5t-106 -238.5h-49q-9 0 -15.5 -6.5t-6.5 -15.5t6.5 -15t15.5 -6h49q9 -138 107.5 -235.5t236.5 -104.5v-53v0v0q0 -9 6.5 -15.5t15.5 -6.5
t15.5 6.5t6.5 15.5v0v53q136 9 233 106.5t106 233.5h54v0q9 0 15.5 6.5t6.5 15.5t-6.5 15.5t-15.5 6.5zM490 581v-52q-88 -7 -150.5 -69.5t-69.5 -150.5h-51q7 109 84.5 186.5t186.5 85.5zM490 -1q-108 7 -185 83t-86 184h51q9 -87 71.5 -148t148.5 -68v-51zM512 178
q-9 0 -15.5 -6t-6.5 -15v-64q-69 6 -119 55t-58 118h68v0q9 0 15.5 6t6.5 15t-6.5 15.5t-15.5 6.5h-1h-68q7 71 57.5 121t120.5 57v-68v0v0q0 -9 6.5 -15.5t15.5 -6.5t15.5 6.5t6.5 15.5v1v66q69 -8 117.5 -57.5t55.5 -118.5h-64q-9 0 -15 -6.5t-6 -15.5t6 -15.5t15 -6.5h63
q-8 -68 -56 -116.5t-116 -56.5v64q0 9 -6.5 15t-15.5 6zM534 -1v52q85 8 145.5 69t69.5 146h51q-9 -106 -84.5 -182t-181.5 -85zM749 310q-7 86 -68 148t-147 71v51q107 -9 183 -86t83 -184h-51z" />
    <glyph glyph-name="icon" unicode="&#xe633;" 
d="M511 749q78 0 147.5 -30.5t122.5 -84.5q96 -100 109 -242t-64 -258q-64 -97 -170 -142l-121 -128q-10 -10 -24 -10t-23 10h-1v0l-121 128q-106 45 -170 142q-77 116 -64 258t109 242q53 54 122.5 84.5t147.5 30.5v0zM511 555v0q79 0 135 -58q57 -58 57 -140t-57 -140
q-56 -58 -135 -58t-135 58q-57 58 -57 140t57 140q56 58 135 58v0zM618 467v0q-44 46 -107 46t-107 -46q-44 -45 -44 -110q0 -64 44 -110q45 -46 107 -46t107 46q44 46 44 110q0 65 -44 110v0zM733 585v0q-92 95 -222 95q-64 0 -121.5 -25t-101.5 -70q-79 -82 -89.5 -199.5
t52.5 -212.5q55 -83 145 -120q6 -2 12 -8l103 -108l102 108q5 5 12 8q92 37 146 120q63 95 52.5 212.5t-90.5 199.5v0z" />
    <glyph glyph-name="lg-up" unicode="&#xe664;" 
d="M159 222q-6 -6 -6 -14.5t6 -13.5q5 -7 13.5 -7t14.5 7l332 330l331 -330q6 -7 14.5 -7t14.5 7q6 5 6 13.5t-6 14.5l-346 346q-6 5 -14.5 5t-14.5 -5z" />
    <glyph glyph-name="top2" unicode="&#xe61b;" 
d="M753 386l-229 229q-5 5 -12 5h-2q-8 0 -14 -5v0l-226 -226q-5 -6 -5 -13.5t5.5 -13.5t13.5 -6t14 6l193 193v-375q0 -8 5.5 -13.5t13.5 -5.5t13.5 5.5t5.5 13.5v375l197 -197q5 -5 13 -5t14 5.5t6 13.5t-6 14zM510 122q-8 0 -13.5 -5.5t-5.5 -13.5t5.5 -13.5t13.5 -5.5
t13.5 5.5t5.5 13.5t-5.5 13.5t-13.5 5.5zM510 20q-8 0 -13.5 -5.5t-5.5 -13.5t5.5 -13.5t13.5 -5.5t13.5 5.5t5.5 13.5t-5.5 13.5t-13.5 5.5z" />
    <glyph glyph-name="top3" unicode="&#xe626;" horiz-adv-x="1080" 
d="M347 896h30q-1 -10 0.5 -13.5t7.5 -8.5q121 -96 161 -252q-33 0 -183 -0.5t-182 1.5q40 144 138 232q2 2 9.5 7.5t12.5 10t6 7.5q1 2 0.5 6t-1 6.5t0.5 3.5v0zM174 593h380q17 -86 15 -138q-2 -51 -20 -133q-23 -106 -63 -243h-242q-32 93 -65 241q-36 164 -6 270
q0 3 1 3v0zM290 478q-12 -39 11 -70.5t63 -31.5q35 1 57 26q17 18 19 42t-7 44t-30 33t-47 10q-51 -5 -66 -53v0zM0 295v30q11 106 124 139q15 -167 69 -323q-18 -26 -26.5 -39t-17.5 -40.5t-8 -55.5q-129 103 -141 289v0zM604 464q76 -23 105 -76q30 -54 11 -155
q-12 -68 -50 -131q-39 -66 -83 -95q2 55 -35 110q-2 3 -6.5 8t-7.5 9t-3 7q-1 3 1.5 9.5t6 15t4.5 11.5q44 143 57 285v2v0zM277 50h173q-5 -10 -17 -29.5t-17 -30.5q-6 3 -14 12t-12 12q-5 -15 -14 -42.5t-13 -40.5q-7 16 -18.5 46.5t-13.5 36.5q-5 -8 -12.5 -23l-9.5 -19
q-8 18 -32 78v0zM277 50z" />
    <glyph glyph-name="top4" unicode="&#xe610;" 
d="M812 153l-300 173l-300 -173l300 604zM264 209l248 143l248 -143l-248 499zM372 138v-126h-16v126h-46v15h107v-15h-45v0zM507 154q40 0 50 -11.5t10 -58.5q0 -50 -10 -61.5t-50.5 -11.5t-50 11.5t-9.5 60.5v10v13q0 28 12 38q13 10 48 10zM506 141q-33 0 -38.5 -7.5
t-5.5 -51t5.5 -51t39 -7.5t39 7.5t5.5 51.5v9v13q0 23 -7.5 29.5t-37.5 6.5zM608 12v141h60h5q24 0 32.5 -9t8.5 -35q0 -24 -9 -32.5t-34 -8.5h-6h-41v-56h-16zM624 81h38q24 0 30.5 5t6.5 22q0 21 -4.5 26.5t-21.5 5.5h-6h-43v-59v0z" />
    <glyph glyph-name="back" unicode="&#xe6a1;" 
d="M957 186v5v3v190v190v3.5v4.5v8v6q-4 40 -27 61q-22 20 -51 18h-582q-7 0 -13 -5q-58 -50 -102.5 -100t-67.5 -88t-32.5 -57.5t-13.5 -32.5q-1 -3 -1 -6v-1v-1v-1v0q0 -4 1 -7q4 -13 14 -32.5t32.5 -58t67 -88.5t102.5 -99q6 -5 13 -5h582h4q27 0 47 18q23 21 27 61v6v8z
M882 134h-2h-575q-102 88 -160 180q-25 39 -36 70q11 31 36 70q58 92 160 180h575h2q11 1 20 -8q14 -12 14 -43v-8v-191v-191v-8q0 -31 -13 -43q-9 -9 -21 -8zM605 384l94 94q6 6 6 14.5t-6 14.5t-14.5 6t-14.5 -6l-94 -94l-93 94q-6 6 -14.5 6t-14.5 -6t-6 -14.5t6 -14.5
l93 -94l-93 -94q-6 -6 -6 -14.5t6 -14.5t14.5 -6t14.5 6l93 94l94 -94q6 -6 14.5 -6t14.5 6t6 14.5t-6 14.5z" />
    <glyph glyph-name="dingwei1" unicode="&#xe88b;" 
d="M512 502q-49 0 -83.5 -34.5t-34.5 -83.5t34.5 -83.5t83.5 -34.5t83.5 34.5t34.5 83.5t-34.5 83.5t-83.5 34.5zM512 832q-91 0 -174 -35.5t-143 -95.5t-95.5 -143t-35.5 -174t35.5 -174t95.5 -143t143 -95.5t174 -35.5t174 35.5t143 95.5t95.5 143t35.5 174t-35.5 174
t-95.5 143t-143 95.5t-174 35.5zM567 21l-55 110l-55 -110q-119 18 -204.5 103t-103.5 204l113 56l-113 56q18 119 103.5 204t203.5 103l56 -112l56 112q118 -18 203.5 -103t103.5 -204l-112 -56l112 -56q-18 -119 -103.5 -204t-204.5 -103z" />
    <glyph glyph-name="lg-down" unicode="&#xe68b;" 
d="M495 237q7 -6 16 -6t16 7q6 7 6 15.5t-6 15.5l-264 263q-6 6 -15.5 6t-15.5 -6q-6 -7 -6 -16t6 -16zM497 268q-6 -7 -6 -16t6.5 -15.5t15.5 -6.5t16 6l263 262q6 7 6 16t-6 15.5t-15 6.5t-16 -6z" />
    <glyph glyph-name="close3" unicode="&#xe61e;" 
d="M512 832q-91 0 -173.5 -35.5t-142.5 -95.5t-95.5 -142.5t-35.5 -173.5t35.5 -173.5t95.5 -142.5t142.5 -95.5t173.5 -35.5t174 35.5t142.5 95.5t95 142.5t35.5 173.5t-35.5 173.5t-95 142.5t-142.5 95.5t-174 35.5zM512.5 7q-102.5 0 -190 50.5t-138 137.5t-50.5 189.5
t50.5 190t138 138t190 50.5t189.5 -50.5t137.5 -138t50.5 -190t-50.5 -189.5t-137.5 -137.5t-189.5 -50.5zM667 540q-10 10 -24.5 10t-24.5 -10l-106 -106l-106 106q-10 10 -24 10t-24.5 -10t-10.5 -24.5t10 -24.5l107 -106l-107 -106q-10 -10 -10 -24.5t10.5 -24.5
t24.5 -10t24 10l106 106l106 -106q10 -10 24.5 -10t24.5 10t10 24.5t-10 24.5l-106 106l106 106q10 10 10 24.5t-10 24.5z" />
    <glyph glyph-name="lg-right" unicode="&#xe658;" horiz-adv-x="2017" 
d="M806 152q-6 0 -10 3q-12 9 -2 20l239 257l-240 263q-10 11 2 20t22 -2l248 -272q9 -9 0 -18l-247 -266q-4 -5 -12 -5v0zM806 152z" />
    <glyph glyph-name="back3" unicode="&#xe61c;" 
d="M512 -84q-94 0 -180 36q-82 35 -146 98.5t-99 146.5q-36 86 -36 179.5t36 179.5q35 83 99 146.5t146 98.5q86 37 180 37t179 -37q83 -35 146.5 -98.5t98.5 -146.5q37 -86 37 -179.5t-37 -179.5q-35 -83 -98.5 -146.5t-146.5 -98.5q-85 -36 -179 -36zM511.5 803
q-115.5 0 -213.5 -57t-155 -155.5t-57 -214t57 -213.5t155 -155.5t213.5 -57.5t214 57.5t155.5 155.5t57 213.5t-57 214t-155.5 155.5t-214 57zM171 290q3 26 3 40q2 20 3 55t1 49v15q15 -1 24 -1q13 0 30 0.5t29 0.5h20q8 -1 14.5 -4t10.5 -7t7 -11t3 -16q0 -6 -2 -12.5
t-5 -11t-6.5 -7.5t-7.5 -5t-10 -3q6 -1 10 -2.5t8 -4.5t7.5 -7.5t5 -10.5t1.5 -12q0 -9 -3 -17t-8 -13q-4 -5 -11 -8.5t-15 -4.5q-6 -1 -22 -1.5t-34 -0.5h-30h-23zM220 322h23q8 0 13 1t7.5 3t4 6t1.5 8t-1 7t-3.5 5t-6.5 2.5t-12 0.5h-24zM223 387h17q8 0 11.5 0.5
t6.5 1.5t5.5 3.5t3.5 5.5t1 6q0 4 -2 7.5t-6.5 5t-14.5 1.5h-21zM319 290l9 17l60 113l7 13q3 5 8 16q20 -1 30 -1q16 0 30 1l17 -49l34 -93l7 -17h-24h-29q-5 19 -15 45h-58q-10 -20 -21 -45h-27h-28zM409 369h36q-14 41 -15 45q-8 -17 -13 -28zM670 329q-1 -7 -3 -19
t-3 -19q-24 -4 -44 -4q-19 0 -35 5t-29.5 15.5t-19.5 25t-6 32.5q0 21 8 38t22.5 28t32 16t36.5 5q17 0 43 -5v-9v-15l1 -13q-13 3 -21.5 4.5t-15.5 1.5q-16 0 -28.5 -6.5t-20 -18.5t-7.5 -26q0 -13 6.5 -22.5t16.5 -15t25 -5.5q8 0 18 1.5t24 5.5zM693 290q2 22 3 36
q1 25 3 69q2 31 2 44v10q19 -1 27 -1q5 0 25 1l-6 -87l-3 -72h-25h-26zM751 374l26 35l21 30l6 10q22 -1 30 -1q2 0 27 1l-49 -62l-9 -13l9 -13l48 -71h-28h-32q-15 28 -49 84z" />
    <glyph glyph-name="error" unicode="&#xe627;" 
d="M1008 384q0 101 -39.5 193t-105.5 158t-158 105.5t-193 39.5t-193 -39.5t-158 -105.5t-105.5 -158t-39.5 -193t39.5 -193t105.5 -158t158 -105.5t193 -39.5q173 0 309 108q8 6 9 16t-5.5 18t-16.5 9t-17 -5q-122 -98 -279 -98q-91 0 -174 35.5t-143 95.5t-95.5 143
t-35.5 174t35.5 174t95.5 143t143 95.5t174 35.5t174 -35.5t143 -95.5t95.5 -143t35.5 -174q0 -128 -68 -236q-5 -9 -3 -18.5t10.5 -15t18.5 -3t15 10.5q75 120 75 262zM524 358l-152 -155q-7 -7 -17 -7t-17 7t-7.5 17t6.5 17l153 156l-153 156q-7 7 -6.5 17t7.5 17t17 7
t17 -8l152 -155l153 155q7 8 17 8t17 -7t7 -17t-7 -17l-153 -156l153 -156q7 -7 7 -17t-7 -17t-17 -7t-17 7z" />
    <glyph glyph-name="warning" unicode="&#xe6b2;" 
d="M512 -128q-104 0 -199 40.5t-163.5 109t-109 163.5t-40.5 199t40.5 199t109 163.5t163.5 109t199 40.5t199 -40.5t163.5 -109t109 -163.5t40.5 -199q0 -148 -79 -273q-6 -10 -17.5 -12.5t-21.5 3.5t-13 17.5t4 21.5q70 111 70 243q0 92 -36 176.5t-97 145.5t-145.5 97
t-176.5 36t-176.5 -36t-145.5 -97t-97 -145.5t-36 -176.5t36 -176.5t97 -145.5t145.5 -97t176.5 -36q162 0 287 102q9 7 21 6t19 -10t6 -21t-10 -19q-68 -56 -151.5 -85.5t-171.5 -29.5zM512 260q-12 0 -20.5 8.5t-8.5 20.5v367q0 12 8.5 20t20.5 8t20.5 -8t8.5 -20v-367
q0 -12 -8.5 -20.5t-20.5 -8.5zM512 84q-12 0 -20.5 8t-8.5 20v23q0 12 8.5 20.5t20.5 8.5t20.5 -8.5t8.5 -20.5v-23q0 -12 -8.5 -20t-20.5 -8z" />
    <glyph glyph-name="chaxun" unicode="&#xe643;" 
d="M695 307q51 71 51 158q0 112 -79.5 191.5t-191.5 79.5t-191.5 -79.5t-79.5 -191.5t79.5 -192t191.5 -80q86 0 156 51l116 -116q7 -7 18 -8t18 6l32 32q6 7 4.5 16.5t-8.5 17.5zM249 465q0 93 66.5 159.5t159.5 66.5t159.5 -66.5t66.5 -160t-66.5 -159.5t-159.5 -66
t-159.5 66t-66.5 160v0z" />
    <glyph glyph-name="tubiao05" unicode="&#xe608;" horiz-adv-x="1025" 
d="M984 582q-38 91 -108.5 161.5t-161.5 108.5q-95 40 -198 40t-198 -40q-91 -39 -161 -109q-71 -70 -109 -161q-40 -95 -40 -198t40 -198q38 -91 109 -161q70 -70 161 -109q95 -40 198 -40q95 0 183.5 34.5t159.5 98.5q6 6 6.5 14.5t-5.5 14.5t-14.5 6.5t-14.5 -5.5
q-64 -59 -145.5 -90.5t-169.5 -31.5q-96 0 -182 37q-83 35 -148.5 100t-100.5 148q-36 87 -36 182t36 182q36 83 101 149q64 64 148 100q87 36 182 36t182 -36q84 -36 149 -101t100 -148q37 -87 37 -182q0 -127 -65 -237q-4 -7 -2 -15t9.5 -12.5t15.5 -2t12 9.5
q70 118 70 257q0 103 -40 198v0zM610 274h59v193q0 27 -19 47t-46 20t-46 -20t-19 -47v-176q0 -47 -32.5 -80t-78.5 -33t-78.5 33t-32.5 80v183h-58l81 141l81 -141h-58v-183q0 -28 19 -47.5t46 -19.5t46 19.5t19 47.5v174q0 48 32.5 81.5t78.5 33.5t78.5 -33.5t32.5 -79.5
v-193h58l-81 -141z" />
    <glyph glyph-name="info" unicode="&#xe60e;" 
d="M465 130q-16 0 -25 10t-9 26q0 51 61 244q2 9 2 15q0 5 -3 5q-8 0 -17 -6q-10 -6 -45 -40l-3 -2l-23 17l3 3q40 44 74.5 63t58.5 19q14 0 22 -6q8 -7 8 -18q0 -13 -26 -99q-43 -141 -43 -169q0 -4 2 -7q2 -2 4 -2q11 0 64 48l2 2l21 -20l-3 -2q-56 -52 -81 -66
q-27 -15 -44 -15zM574 552q-13 0 -22.5 9.5t-9.5 24.5q0 19 13 32q13 14 31 14q14 0 23 -9t9 -23q0 -19 -13 -34q-14 -14 -31 -14zM979 579q-38 91 -108.5 161.5t-162.5 109.5q-94 40 -197.5 40t-198.5 -40q-91 -39 -161 -109q-71 -70 -109 -162q-40 -95 -40 -198t40 -198
q38 -91 109 -162q70 -70 161 -109q95 -40 198 -40q96 0 184.5 34.5t159.5 98.5q6 6 6.5 14.5t-5 14.5t-14 6.5t-14.5 -5.5q-65 -59 -146.5 -90.5t-169.5 -31.5q-96 0 -183 37q-84 35 -148 100q-65 65 -101 149q-37 87 -37 182t37 182q35 84 100 149t149 100q87 37 182.5 37
t182.5 -37q84 -35 148 -100q65 -65 101 -149q37 -86 37 -182q0 -128 -65 -237q-4 -7 -2 -15.5t9.5 -12.5t15.5 -2t12 9q70 119 70 258q0 103 -40 198v0zM979 579z" />
    <glyph glyph-name="lg-left" unicode="&#xe611;" 
d="M681 664l-27 27l-311 -307l311 -307l27 27l-283 280z" />
    <glyph glyph-name="back2" unicode="&#xe65b;" 
d="M899.5 338q-8.5 1 -15 -3.5t-7.5 -12.5q-19 -105 -92.5 -183.5t-176.5 -105.5q-96 -25 -190.5 1t-163.5 94.5t-94 164.5t1 189.5t95 162t165 93.5q145 39 280 -38q63 -37 107 -95t62 -128q2 -8 9 -12.5t15 -2.5t12.5 9t2.5 15q-21 79 -69.5 142.5t-118.5 104t-150 51.5
t-159 -9q-107 -28 -184 -104t-106 -179.5t-1 -209.5q36 -135 146.5 -218.5t247.5 -83.5q53 0 103 13q115 30 195.5 117t102.5 204q1 9 -3.5 16t-13 8zM515 -25q-141 0 -252 85.5t-147 220.5q-28 107 1.5 212t107.5 182t186 105q52 13 104 13q112 0 208 -56
q71 -41 120.5 -105.5t70.5 -143.5q2 -10 -3 -19t-16 -12h-6q-19 0 -24 19q-18 69 -61 125.5t-106 93.5q-87 50 -184 50q-46 0 -91 -12q-95 -25 -163 -92.5t-94 -160t-1 -186.5q32 -118 130 -193t221 -75q46 0 91 12q102 27 174 104.5t91 180.5q1 9 9.5 15t19 5t16.5 -10
t4 -20q-22 -118 -104 -206.5t-198 -118.5q-50 -13 -104 -13zM515 783q-51 0 -102 -13q-105 -27 -181 -102t-104.5 -177.5t-1.5 -207.5q35 -131 143.5 -214.5t245.5 -83.5q53 0 101 13q114 30 194 116t100 201q2 7 -2 12q-3 5 -9 5.5t-11 -2.5t-6 -9q-19 -106 -93.5 -186
t-178.5 -107q-47 -12 -94 -12q-127 0 -228 77t-133 198q-26 97 1 192t97 164.5t167 95.5q46 12 94 12q100 0 189 -51q65 -38 109.5 -96t62.5 -130q2 -6 7 -9t11 -1.5t9 6.5t2 11q-21 77 -69 140t-117 103q-94 55 -203 55zM733 386q0 7 -6 13t-14 6h-321l150 149q6 6 6 14
t-6 14q-14 14 -28 0l-183 -182q-9 -9 -4 -21q2 -5 4 -7l183 -181q5 -6 14.5 -6t14.5 6q14 14 0 28l-151 147h321q8 0 14 5.5t6 14.5zM528.5 180q-11.5 0 -18.5 7l-183 182q-2 1 -5 8q-7 15 5 27l183 181q7 8 17.5 8t18 -7.5t7.5 -17.5t-8 -18l-140 -139h308q10 0 17.5 -7.5
t7.5 -17.5q0 -11 -7.5 -18.5t-17.5 -7.5h-308l142 -138q7 -7 7 -17.5t-7 -17.5t-18.5 -7zM527.5 582q-5.5 0 -10.5 -4l-183 -182q-6 -6 -2 -15q2 -4 2 -5l183 -182q4 -3 11 -3t11 3q10 11 0 21l-151 147q-1 1 -1 4v2q1 3 5 3h321q6 0 10 4.5t4 10t-4.5 10t-9.5 4.5h-321
q-3 0 -4.5 3.5t0.5 5.5l150 149q4 4 4 10t-4.5 10t-10 4z" />
    <glyph glyph-name="angle-down" unicode="&#xe679;" 
d="M512 275l-203 199q-3 4 -3 8t3 7.5t8 3.5q4 0 7 -3l188 -185l188 185q3 3 7 3q5 0 8 -3.5t3 -7.5t-3 -7z" />
    <glyph glyph-name="angle-left" unicode="&#xe67a;" 
d="M610.5 177q-4.5 0 -8.5 4l-199 203l199 203q4 4 8.5 4t7.5 -3.5t3 -8t-3 -7.5l-185 -188l185 -188q3 -3 3 -7.5t-3 -8t-7.5 -3.5z" />
    <glyph glyph-name="angle-right" unicode="&#xe67b;" 
d="M413.5 177q-4.5 0 -7.5 3.5t-3 8t3 7.5l185 188l-185 188q-3 3 -3 7q0 5 3.5 8t7.5 3t7 -3l200 -203l-199 -203q-4 -4 -8.5 -4z" />
    <glyph glyph-name="angle-up" unicode="&#xe67c;" 
d="M316 275q-4 0 -7.5 3t-3.5 7.5t4 8.5l203 199l203 -199q3 -4 3 -8t-3 -7.5t-8 -3.5q-4 0 -7 3l-188 185l-188 -185q-3 -3 -8 -3v0z" />
    <glyph glyph-name="success" unicode="&#xe616;" 
d="M464 219q8 -7 18 -7t17 8l300 309q7 7 7 17.5t-7.5 17.5t-18 7t-17.5 -7l-300 -310l35 1l-181 167q-8 7 -18.5 6.5t-17.5 -8t-6.5 -18t8.5 -17.5zM1024 384q0 139 -68.5 257t-186.5 186.5t-257 68.5t-257 -68.5t-186.5 -186.5t-68.5 -257t68.5 -257t186.5 -186.5
t257 -68.5q179 0 319 111q8 7 9 17t-5.5 18.5t-16.5 9.5t-18 -6q-126 -100 -288 -100q-94 0 -179.5 36.5t-147.5 98.5t-98.5 147.5t-36.5 179.5t36.5 179.5t98.5 147.5t147.5 98.5t179.5 36.5t179.5 -36.5t147.5 -98.5t98.5 -147.5t36.5 -179.5q0 -132 -70 -244
q-5 -9 -2.5 -19t11 -15.5t18.5 -3t16 11.5q77 123 77 270z" />
  </font>
</defs>
</svg>
